<svg width="512" height="512" viewBox="0 0 512 512" fill="none" xmlns="http://www.w3.org/2000/svg">
<rect width="512" height="512" fill="white"/>
<path d="M53.342 201V223.011H71.6848V238.663H53.342V256.027C53.342 266.176 61.5354 274.369 71.6848 274.369V291H69.2387C48.9397 291 35 275.348 35 256.027V201H53.342Z" fill="black"/>
<path d="M101.029 223.012V256.027C101.029 266.177 106.044 274.37 116.193 274.37C126.342 274.37 131.356 266.177 131.356 256.027V223.012H149.698V256.027C149.698 275.349 136.491 291 116.193 291C95.895 291 82.6875 275.348 82.6875 256.027V223.012H101.029Z" fill="black"/>
<path d="M179.279 201V223.011H197.622V238.663H179.279V256.027C179.279 266.176 187.473 274.369 197.622 274.369V291H195.176C174.877 291 160.938 275.348 160.938 256.027V201H179.279Z" fill="black"/>
<path d="M242.007 291C221.83 291 205.566 275.348 205.566 256.027C205.566 236.706 221.83 221.055 242.007 221.055C262.183 221.055 278.447 236.707 278.447 256.027C278.447 275.347 262.183 291 242.007 291ZM242.007 237.685C231.98 237.685 223.909 245.878 223.909 256.027C223.909 266.176 231.98 274.37 242.007 274.37C252.033 274.37 260.104 266.177 260.104 256.027C260.104 245.878 252.034 237.685 242.007 237.685Z" fill="black"/>
<path d="M319.768 291C299.592 291 283.328 275.348 283.328 256.027C283.328 236.706 299.592 221.055 319.768 221.055C339.944 221.055 356.208 236.707 356.208 256.027C356.208 275.347 339.944 291 319.768 291ZM319.768 237.685C309.742 237.685 301.671 245.878 301.671 256.027C301.671 266.176 309.742 274.37 319.768 274.37C329.795 274.37 337.866 266.177 337.866 256.027C337.866 245.878 329.796 237.685 319.768 237.685Z" fill="black"/>
<path d="M397.165 221.055C406.703 221.055 415.262 225.335 421.01 232.183C426.757 225.335 435.317 221.055 444.854 221.055C465.153 221.055 477.87 236.707 477.87 256.027V289.043H459.528V256.027C459.528 245.878 455.003 237.685 444.854 237.685C434.705 237.685 430.18 245.878 430.18 256.027V289.043H411.838V256.027C411.838 245.878 407.314 237.685 397.165 237.685C387.015 237.685 382.49 245.878 382.49 256.027V289.043H364.148V256.027C364.148 236.707 376.866 221.055 397.165 221.055Z" fill="black"/>
</svg>
