<svg width="41" height="42" viewBox="0 0 41 42" fill="none" xmlns="http://www.w3.org/2000/svg">
<path d="M27.2699 26.0848C27.6228 26.0903 27.9577 26.241 28.196 26.5013L35.1876 34.0753L36.2152 33.1247L31.4832 28H31.5V9.09997C31.4977 7.16798 29.932 5.60225 28 5.59998H25.2V6.99998H28C29.1598 6.99998 30.1 7.94016 30.1 9.09997V9.79997H25.2V11.2H30.1V26.5013L29.2236 25.55C28.7281 25.0102 28.0326 24.6976 27.3 24.6855C27.114 24.6774 26.9277 24.6893 26.7442 24.7212L27.2825 22.5694L27.8467 20.3H28.7V18.9H27.3C26.9787 18.9001 26.6988 19.1188 26.621 19.4306L26.054 21.7H15.4C15.0134 21.7001 14.7001 22.0136 14.7002 22.4001C14.7002 22.4572 14.7072 22.514 14.721 22.5694L16.121 28.1694C16.1988 28.4811 16.4787 28.6999 16.8 28.7H24.8962C24.9893 28.8687 25.1003 29.0269 25.2273 29.1718L25.7761 29.7892C25.6473 29.9817 25.4316 30.098 25.2 30.1H16.1V31.5H25.2C25.7732 31.4974 26.3204 31.2607 26.7148 30.8448L29.3167 33.7722C28.8233 35.5838 29.0653 37.5169 29.9901 39.151C29.7107 40.0142 28.9073 40.5992 28 40.6H14C12.8402 40.6 11.9 39.6598 11.9 38.5V37.8H28V36.4H11.9V16.8H10.5V38.5C10.5023 40.432 12.068 41.9977 14 42H28C29.1657 42 30.2548 41.4198 30.905 40.4523C31.1372 40.7094 31.3872 40.9499 31.6533 41.1719L32.452 41.8383L33.348 40.7617L32.55 40.096C30.7118 38.5766 30.0015 36.0807 30.7643 33.8212C30.8436 33.584 30.7902 33.3224 30.6243 33.1352L26.2752 28.2422C25.8201 27.7289 25.8428 26.9501 26.327 26.4642C26.5811 26.2216 26.9186 26.0858 27.2699 26.0848ZM16.6467 24.5L16.2967 23.1H18.2819L18.4569 24.5H16.6467ZM17.3467 27.3L16.9967 25.9H18.6319L18.8069 27.3H17.3467ZM21.7819 27.3H20.2181L20.0431 25.9H21.9569L21.7819 27.3ZM22.1319 24.5H19.8681L19.6931 23.1H22.3069L22.1319 24.5ZM24.5476 27.3H23.1931L23.3681 25.9H24.99C24.7157 26.3166 24.5626 26.8013 24.5476 27.3ZM25.3533 24.5H23.5431L23.7181 23.1H25.7033L25.3533 24.5Z" fill="white"/>
<path d="M17.5 35C18.2732 35 18.9 34.3732 18.9 33.6C18.9 32.8268 18.2732 32.2 17.5 32.2C16.7268 32.2 16.1 32.8268 16.1 33.6C16.1 34.3732 16.7268 35 17.5 35Z" fill="white"/>
<path d="M24.5 35C25.2732 35 25.9 34.3732 25.9 33.6C25.9 32.8268 25.2732 32.2 24.5 32.2C23.7268 32.2 23.1 32.8268 23.1 33.6C23.1 34.3732 23.7268 35 24.5 35Z" fill="white"/>
<path d="M21 0H2.8C1.25361 0 0 1.25361 0 2.8V12.6C0 14.1464 1.25361 15.4 2.8 15.4H21C22.5464 15.4 23.8 14.1464 23.8 12.6V2.8C23.8 1.25361 22.5464 0 21 0ZM22.4 12.6C22.4 13.3732 21.7732 14 21 14H2.8C2.02676 14 1.4 13.3732 1.4 12.6V2.8C1.4 2.02676 2.02676 1.4 2.8 1.4H21C21.7732 1.4 22.4 2.02676 22.4 2.8V12.6Z" fill="white"/>
<path d="M15.4 3.5H2.80005V4.9H15.4V3.5Z" fill="white"/>
<path d="M19.9735 7.99051C19.3165 7.60411 18.5016 7.60411 17.8445 7.99051C17.5282 7.80274 17.1678 7.70246 16.8001 7.70001C15.6403 7.70001 14.7001 8.6402 14.7001 9.80001C14.7001 10.9598 15.6403 11.9 16.8001 11.9C17.1677 11.898 17.5282 11.7982 17.8445 11.6109C18.8442 12.1988 20.1313 11.865 20.7192 10.8652C21.3071 9.86546 20.9732 8.57842 19.9735 7.99051ZM16.8001 10.5C16.4135 10.5 16.1001 10.1866 16.1001 9.80001C16.1001 9.41344 16.4135 9.10001 16.8001 9.10001C17.1866 9.10001 17.5001 9.41344 17.5001 9.80001C17.5001 10.1866 17.1866 10.5 16.8001 10.5ZM18.9001 10.5C18.8583 10.498 18.8169 10.4921 18.7762 10.4825C18.9409 10.0426 18.9409 9.55807 18.7762 9.11821C18.8169 9.10859 18.8583 9.10246 18.9001 9.10001C19.2866 9.10001 19.6001 9.41344 19.6001 9.80001C19.6001 10.1866 19.2866 10.5 18.9001 10.5Z" fill="white"/>
<path d="M4.20005 7.70001H2.80005V9.10001H4.20005V7.70001Z" fill="white"/>
<path d="M6.99998 7.70001H5.59998V9.10001H6.99998V7.70001Z" fill="white"/>
<path d="M9.80002 7.70001H8.40002V9.10001H9.80002V7.70001Z" fill="white"/>
<path d="M12.6 7.70001H11.2V9.10001H12.6V7.70001Z" fill="white"/>
<path d="M12.6 10.5H2.80005V11.9H12.6V10.5Z" fill="white"/>
<path d="M39.2967 27.02L33.4167 20.5282L32.3793 21.4676L38.2628 27.9657C38.8661 28.6127 39.2011 29.4646 39.2001 30.3492V42H40.6001V30.3492C40.6031 29.1144 40.1373 27.9245 39.2967 27.02Z" fill="white"/>
<path d="M22.7115 17.6176L21.7 18.2917V16.8H20.3V18.2917L19.2885 17.6176L18.5115 18.7824L20.6115 20.1824C20.8467 20.3394 21.1533 20.3394 21.3885 20.1824L23.4885 18.7824L22.7115 17.6176Z" fill="white"/>
</svg>
