<svg width="26" height="26" viewBox="0 0 26 26" fill="none" xmlns="http://www.w3.org/2000/svg">
<path d="M19.3247 13V13.0248V13.0579V13.0828V13.1076L19.3331 13.1407V13.1655V13.1903L19.3415 13.2234V13.2483L19.35 13.2731L19.3584 13.3062V13.331L19.3668 13.3641L19.3753 13.389L19.3837 13.4221V13.4552L19.3921 13.48L19.4006 13.5131L19.409 13.5462L19.4174 13.571L19.4343 13.6041L19.4427 13.6372L19.4512 13.6703L19.4596 13.7034L19.468 13.7366L19.4849 13.7697L19.4933 13.811L19.5018 13.8441L19.5186 13.8772L19.5271 13.9103L19.5439 13.9517L19.5524 13.9848L19.5692 14.0262L19.5777 14.0676L19.5945 14.109L19.6114 14.1421L19.6198 14.1834L19.6367 14.2248L19.6536 14.2662L19.662 14.3159L19.6788 14.3572L19.6873 14.3986L19.7041 14.4483L19.721 14.4897L19.7294 14.5393L19.7463 14.589L19.7632 14.6303L19.7716 14.68L19.7885 14.7297L19.8053 14.7793L19.8138 14.8372L19.8306 14.8869L19.8391 14.9366L19.8559 14.9945L19.8644 15.0441L19.8812 15.1021L19.8897 15.16L19.8981 15.2179L19.915 15.2759L19.9234 15.3338L19.9318 15.3917L19.9403 15.4579L19.9571 15.5159L19.9656 15.5821L19.974 15.64L19.9824 15.7062V15.7724L19.9909 15.8386L19.9993 15.9048L20.0077 15.971V16.0372L20.0162 16.1034V16.1779V16.2441L20.0246 16.3186V16.3931V16.4593V16.5338L20.0162 16.6083V16.6828V16.7572L20.0077 16.84V16.9145L19.9993 16.989L19.9909 17.0717L19.9824 17.1545L19.974 17.229L19.9656 17.3117L19.9571 17.3945L19.9403 17.4772L19.9234 17.5517L19.915 17.6345L19.8981 17.7255L19.8812 17.8083L19.8644 17.891L19.8391 17.9738L19.8222 18.0566L19.7969 18.1476L19.7716 18.2303L19.7463 18.3214L19.721 18.4041L19.6957 18.4952L19.662 18.5779L19.6367 18.669L19.603 18.76L19.5692 18.8428L19.5355 18.9338L19.5018 19.0248L19.4596 19.1076L19.4259 19.1986L19.3837 19.2897L19.3415 19.3807L19.2994 19.4634L19.2488 19.5545L19.2066 19.6455L19.156 19.7366L19.1054 19.8276L19.0548 19.9103L19.0042 20.0014L18.9452 20.0924L18.8946 20.1834L18.8356 20.2662L18.7765 20.3572L18.7175 20.4483L18.65 20.531L18.591 20.6221L18.5235 20.7048L18.4561 20.7959L18.3886 20.8786L18.3127 20.9697L18.2453 21.0524L18.1694 21.1352L18.0935 21.2179L18.0176 21.3007L17.9417 21.3917L17.8573 21.4662L17.7814 21.549L17.6971 21.6317L17.6128 21.7145L17.52 21.789L17.4357 21.8717L17.3429 21.9462L17.2502 22.029L17.1574 22.1034L17.0647 22.1779L16.9719 22.2524L16.8707 22.3269L16.7695 22.3931L16.6767 22.4676L16.5671 22.5338L16.4659 22.6083L16.3647 22.6745L16.2551 22.7407L16.1455 22.8069L16.0358 22.8731L15.9262 22.931L15.8166 22.9972L15.6985 23.0552L15.5889 23.1131L15.4708 23.171L15.3528 23.229L15.2347 23.2786L15.1167 23.3366L14.9986 23.3862L14.8721 23.4359L14.7456 23.4855L14.6275 23.5269L14.5011 23.5766L14.3746 23.6179L14.2396 23.6593L14.1131 23.7007L13.9866 23.7338L13.8517 23.7752L13.7168 23.8083L13.5903 23.8414L13.4554 23.8745L13.3205 23.8993L13.1855 23.9324L13.0506 23.9572L12.9072 23.9821L12.7723 23.9986L12.629 24.0234L12.494 24.04L12.3507 24.0566L12.2157 24.0731L12.0724 24.0814L11.929 24.0897L11.7857 24.0979L11.6423 24.1062H11.4989L11.3556 24.1145H11.2122L11.0689 24.1062H10.9255L10.7737 24.0979L10.6304 24.0897L10.487 24.0814L10.3352 24.0648L10.1918 24.0483L10.0485 24.0317L9.8967 24.0152L9.75334 23.9903L9.60998 23.9655L9.45819 23.9407L9.31483 23.9159L9.17147 23.8828L9.02811 23.8497L8.87632 23.8166L8.73296 23.7834L8.5896 23.7421L8.44624 23.7007L8.30288 23.6593L8.15952 23.6097L8.01616 23.5683L7.8728 23.5186L7.72945 23.4607L7.58609 23.411L7.44273 23.3531L7.3078 23.2952L7.16444 23.2372L7.02952 23.171L6.88616 23.1048L6.75123 23.0386L6.6163 22.9724L6.48138 22.8979L6.34645 22.8234L6.21153 22.749L6.0766 22.6745L5.94167 22.5917L5.81518 22.509L5.68025 22.4262L5.55376 22.3434L5.42727 22.2524L5.30077 22.1697L5.17428 22.0786L5.05622 21.9793L4.92973 21.8883L4.81167 21.789L4.69361 21.6897L4.57554 21.5903L4.45748 21.491L4.33942 21.3834L4.2298 21.2759L4.11174 21.1683L4.00211 21.0607L3.89248 20.9531L3.79129 20.8372L3.68166 20.7214L3.58046 20.6055L3.47927 20.4897L3.37807 20.3738L3.27688 20.2497L3.18412 20.1338L3.08292 20.0097L2.99016 19.8855L2.8974 19.7531L2.81307 19.629L2.72874 19.4966L2.63598 19.3724L2.55165 19.24L2.47576 19.1076L2.39143 18.9752L2.31553 18.8345L2.23963 18.7021L2.17217 18.5614L2.09628 18.429L2.02881 18.2883L1.96135 18.1476L1.89389 18.0069L1.83486 17.8662L1.77583 17.7255L1.7168 17.5766L1.65777 17.4359L1.60717 17.2869L1.55657 17.1462L1.50597 16.9972L1.45538 16.8483L1.41321 16.6993L1.37105 16.5503L1.32888 16.4014L1.29515 16.2524L1.25299 16.1034L1.22769 15.9545L1.19396 15.8055L1.16022 15.6566L1.13493 15.5076L1.10963 15.3503L1.09276 15.2014L1.0759 15.0524L1.05903 14.8952L1.04216 14.7462L1.0253 14.5972L1.01687 14.44L1.00843 14.291V14.1421L1 13.9848V13.8359V13.6869L1.00843 13.5297V13.3807L1.01687 13.2317L1.03373 13.0828L1.04216 12.9338L1.05903 12.7848L1.0759 12.6359L1.09276 12.4869L1.11806 12.3379L1.14336 12.189L1.16866 12.04L1.19396 11.8993L1.22769 11.7503L1.26142 11.6097L1.29515 11.4607L1.32888 11.32L1.37105 11.1793L1.41321 11.0386L1.45538 10.8979L1.49754 10.7572L1.54814 10.6166L1.5903 10.4759L1.6409 10.3434L1.69993 10.211L1.75053 10.0703L1.80956 9.93793L1.86859 9.80552L1.92762 9.6731L1.98665 9.54897L2.05411 9.41655L2.12157 9.29241L2.18904 9.16L2.2565 9.03586L2.3324 8.91172L2.39986 8.79586L2.47576 8.67172L2.55165 8.55586L2.62755 8.43172L2.70344 8.31586L2.78777 8.2L2.8721 8.09241L2.95643 7.97655L3.04076 7.86897L3.12509 7.76138L3.20942 7.65379L3.30218 7.54621L3.39494 7.43862L3.47927 7.33931L3.57203 7.24L3.67323 7.14069L3.76599 7.04138L3.85875 6.94207L3.95994 6.85103L4.05271 6.76L4.1539 6.66897L4.2551 6.57793L4.35629 6.4869L4.45748 6.40414L4.55868 6.32138L4.66831 6.23862L4.7695 6.15586L4.87913 6.08138L4.98032 6.0069L5.08995 5.93241L5.19958 5.85793L5.30921 5.78345L5.4104 5.71724L5.52003 5.65103L5.62966 5.58483L5.74772 5.51862L5.85734 5.46069L5.96697 5.39448L6.0766 5.33655L6.18623 5.2869L6.30429 5.22897L6.41392 5.17931L6.52354 5.12138L6.6416 5.07172L6.75123 5.03034L6.86929 4.98069L6.97892 4.93931L7.09698 4.89793L7.20661 4.85655L7.32467 4.81517L7.43429 4.78207L7.54392 4.74897L7.66198 4.71586L7.77161 4.68276L7.88967 4.64966L7.9993 4.62483L8.10893 4.6L8.22699 4.57517L8.33661 4.55034L8.44624 4.52552L8.5643 4.50897L8.67393 4.49241L8.78356 4.47586L8.89318 4.45931L9.00281 4.44276L9.11244 4.43448L9.22207 4.42621L9.33169 4.41793L9.44132 4.40966L9.54252 4.40138H9.65214L9.76177 4.3931H9.86297H9.97259L10.0738 4.40138H10.175H10.2762L10.3774 4.40966L10.4786 4.41793L10.5798 4.42621L10.681 4.43448L10.7822 4.44276L10.8749 4.45931L10.9761 4.46759L11.0689 4.48414L11.1701 4.50069L11.2628 4.51724L11.3556 4.53379L11.4483 4.55034L11.5411 4.57517L11.6254 4.59172L11.7182 4.61655L11.8025 4.6331L11.8953 4.65793L11.9796 4.68276L12.064 4.70759L12.1483 4.73241L12.2326 4.76552L12.3169 4.79034L12.3928 4.81517L12.4772 4.84828L12.5531 4.8731L12.629 4.90621L12.7049 4.93931L12.7807 4.97241L12.8566 5.00552L12.9325 5.03862L13.0084 5.07172L13.0759 5.10483L13.1434 5.13793L13.2193 5.17103L13.2867 5.20414L13.3542 5.24552L13.4132 5.27862L13.4807 5.31172L13.5481 5.3531L13.6072 5.38621L13.6662 5.42759L13.7337 5.46069L13.7927 5.50207L13.8433 5.54345L13.9023 5.57655L13.9614 5.61793L14.0119 5.65103L14.071 5.69241L14.1216 5.73379L14.1722 5.7669L14.2228 5.80828L14.2734 5.84966L14.324 5.88276L14.3746 5.92414L14.4167 5.96552L14.4673 5.99862L14.5095 6.04L14.5601 6.08138L14.6023 6.11448L14.6444 6.15586L14.6866 6.19724L14.7287 6.23034L14.7625 6.27172L14.8046 6.30483L14.8468 6.34621L14.8805 6.37931L14.9143 6.41241L14.9564 6.45379L14.9902 6.4869L15.0239 6.52L15.0576 6.56138L15.0914 6.59448L15.1251 6.62759L15.1588 6.66069L15.1841 6.69379L15.2179 6.7269L15.2432 6.76L15.2769 6.7931L15.3022 6.82621L15.3359 6.85103L15.3612 6.88414L15.3865 6.91724L15.4118 6.94207L15.4455 6.97517L15.4708 7.00828L15.4961 7.0331L15.5214 7.05793L15.5467 7.09103L15.572 7.11586L15.5973 7.14069L15.6142 7.16552L15.6395 7.19035L15.6648 7.21517L15.6901 7.24L15.7154 7.26483L15.7323 7.28966L15.7576 7.31448L15.7829 7.33103L15.8082 7.35586L15.825 7.37241L15.8503 7.39724L15.8756 7.41379L15.8925 7.43862L15.9178 7.45517L15.9431 7.47172L15.9599 7.48828L15.9852 7.50483L16.0105 7.52138L16.0274 7.53793L16.0527 7.55448L16.078 7.57103L16.1033 7.58759L16.1202 7.60414L16.1455 7.61241L16.1708 7.62897L16.1961 7.64552L16.2214 7.65379L16.2467 7.67034L16.272 7.67862L16.2973 7.69517L16.3226 7.70345L16.3479 7.71172L16.3732 7.72828L16.3985 7.73655L16.4322 7.74483L16.4575 7.7531L16.4828 7.76138L16.5165 7.77793L16.5418 7.78621L16.5755 7.79448L16.6008 7.80276L16.6346 7.81103L16.6683 7.81931L16.702 7.82759L16.7273 7.83586L16.7611 7.84414L16.7948 7.85241L16.8285 7.86069H16.8623L16.9044 7.86897L16.9382 7.87724L16.9719 7.88552L17.0141 7.89379L17.0478 7.90207L17.09 7.91034L17.1237 7.91862L17.1658 7.9269L17.208 7.93517L17.2502 7.94345L17.2923 7.95172L17.3345 7.96L17.3767 7.96828L17.4188 7.97655L17.461 7.98483L17.5116 7.9931L17.5538 8.00965L17.6044 8.01793L17.6465 8.02621L17.6971 8.04276L17.7393 8.05103L17.7899 8.05931L17.8405 8.07586L17.8911 8.09241L17.9417 8.10069L17.9923 8.11724L18.0513 8.13379L18.1019 8.14207L18.1525 8.15862L18.2115 8.17517L18.2621 8.19172L18.3212 8.21655L18.3718 8.2331L18.4308 8.24966L18.4898 8.27448L18.5488 8.29103L18.5994 8.31586L18.6585 8.33241L18.7175 8.35724L18.7765 8.38207L18.844 8.4069L18.903 8.43172L18.9621 8.45655L19.0211 8.48966L19.0885 8.51448L19.1476 8.54759L19.2066 8.57241L19.2741 8.60552L19.3331 8.63862L19.4006 8.67172L19.468 8.70483L19.5271 8.73793L19.5945 8.77931L19.6536 8.81241L19.721 8.85379L19.7885 8.89517L19.8559 8.93655L19.915 8.97793L19.9824 9.01931L20.0499 9.06897L20.1174 9.11034L20.1848 9.16L20.2439 9.20965L20.3113 9.25931L20.3788 9.30897L20.4462 9.35862L20.5137 9.40828L20.5727 9.46621L20.6402 9.52414L20.7077 9.58207L20.7751 9.64L20.8342 9.69793L20.9016 9.75586L20.9691 9.82207L21.0281 9.88828L21.0956 9.94621L21.1546 10.0124L21.2221 10.0869L21.2811 10.1531L21.3486 10.2193L21.4076 10.2938L21.4666 10.3683L21.5257 10.4428L21.5847 10.5172L21.6437 10.5917L21.7027 10.6745L21.7618 10.749L21.8208 10.8317L21.8798 10.9145L21.9389 10.9972L21.9895 11.08L22.0485 11.171L22.0991 11.2538L22.1497 11.3448L22.2003 11.4359L22.2509 11.5269L22.3015 11.6179L22.3521 11.709L22.4027 11.8083L22.4448 11.9076L22.4954 11.9986L22.5376 12.0979L22.5798 12.1972L22.6219 12.3048L22.6641 12.4041L22.7063 12.5034L22.74 12.611L22.7822 12.7186L22.8159 12.8262L22.8496 12.9338L22.8833 13.0414L22.9171 13.149L22.9508 13.2566L22.9761 13.3724L23.0014 13.4883L23.0267 13.5959L23.052 13.7117L23.0773 13.8276L23.1026 13.9434L23.1195 14.0593L23.1363 14.1834L23.1532 14.2993L23.1701 14.4152L23.1869 14.5393L23.1954 14.6634L23.2038 14.7793L23.2122 14.9034L23.2207 15.0276L23.2291 15.1517V15.2759V15.4V15.5241V15.6566L23.2207 15.7807L23.2122 15.9048L23.2038 16.0372L23.1954 16.1614L23.1869 16.2938L23.1701 16.4179L23.1532 16.5503L23.1363 16.6745L23.1195 16.8069L23.0942 16.9393L23.0689 17.0634L23.0436 17.1959L23.0183 17.3283L22.9845 17.4524L22.9508 17.5848L22.9171 17.7172L22.8833 17.8414L22.8496 17.9738L22.8074 18.1062L22.7653 18.2303L22.7231 18.3628L22.6725 18.4869L22.6219 18.6193L22.5713 18.7434L22.5207 18.8759L22.4701 19L22.4111 19.1324L22.3521 19.2566L22.293 19.3807L22.2256 19.5048L22.1581 19.629L22.0991 19.7531L22.0232 19.8772L21.9557 20.0014L21.8798 20.1255L21.8039 20.2497L21.728 20.3655L21.6521 20.4897L21.5678 20.6055L21.4835 20.7214L21.3992 20.8455L21.3148 20.9614L21.2221 21.069L21.1377 21.1848L21.045 21.3007L20.9438 21.4083L20.851 21.5241L20.7498 21.6317L20.6486 21.7393L20.5474 21.8469L20.4462 21.9545L20.3366 22.0621L20.227 22.1614L20.1258 22.2607L20.0077 22.36L19.8981 22.4593L19.78 22.5586L19.6704 22.6579L19.5524 22.749L19.4343 22.84L19.3078 22.931L19.1897 23.0221L19.0632 23.1131L18.9368 23.1959L18.8103 23.2786L18.6838 23.3614L18.5488 23.4441L18.4223 23.5269L18.2874 23.6014L18.1525 23.6759L18.0176 23.7503L17.8826 23.8248L17.7477 23.891L17.6044 23.9572L17.4694 24.0234L17.3261 24.0897L17.1827 24.1476L17.0394 24.2138L16.896 24.2634L16.7526 24.3214L16.6008 24.3793L16.4575 24.429L16.3057 24.4786L16.1623 24.5283L16.0105 24.5697L15.8588 24.611L15.707 24.6524L15.5552 24.6938L15.4034 24.7269L15.2516 24.76L15.0998 24.7931L14.9396 24.8262L14.7878 24.851L14.636 24.8759L14.4758 24.9007L14.324 24.9172L14.1637 24.9338L14.0035 24.9503L13.8517 24.9669L13.6915 24.9752L13.5397 24.9834L13.3795 24.9917L13.2193 25H13.059H12.9072H12.747L12.5868 24.9917L12.435 24.9834L12.2748 24.9752L12.1145 24.9669L11.9628 24.9503L11.8025 24.9338L11.6507 24.9172L11.4905 24.8924L11.3387 24.8676L11.1785 24.8428L11.0267 24.8179L10.8749 24.7848L10.7147 24.7517L10.5629 24.7186L10.4111 24.6855L10.2593 24.6441L10.1075 24.6028L9.95573 24.5614L9.81237 24.5117L9.66058 24.4703L9.51722 24.4207L9.36543 24.3628L9.22207 24.3131L9.07871 24.2552L8.92692 24.1972L8.79199 24.1393L8.64863 24.0731L8.50527 24.0152L8.36191 23.949L8.22699 23.8745L8.09206 23.8083L7.9487 23.7338L7.81377 23.6593L7.68728 23.5848L7.55236 23.5103L7.41743 23.4276L7.29094 23.3448L7.16444 23.2621L7.03795 23.1793L6.91146 23.0966L6.78496 23.0055L6.6669 22.9145L6.54884 22.8234L6.42235 22.7324L6.31272 22.6331L6.19466 22.5421L6.0766 22.4428L5.96697 22.3434L5.85734 22.2441L5.74772 22.1366L5.63809 22.0372L5.53689 21.9297L5.42727 21.8221L5.32607 21.7228L5.22488 21.6069L5.13212 21.4993L5.03092 21.3917L4.93816 21.2759L4.8454 21.16L4.76107 21.0524L4.66831 20.9366L4.58398 20.8207L4.49965 20.6966L4.41532 20.5807L4.33099 20.4648L4.2551 20.3407L4.1792 20.2248L4.1033 20.1007L4.02741 19.9766L3.95994 19.8524L3.89248 19.7283L3.82502 19.6041L3.75755 19.48L3.69852 19.3559L3.63949 19.2317L3.58046 19.0993L3.52143 18.9752L3.47084 18.851L3.41181 18.7186L3.36964 18.5945L3.31904 18.4621L3.26845 18.3379L3.22628 18.2055L3.18412 18.0731L3.14195 17.949L3.10822 17.8166L3.07449 17.6841L3.04076 17.56L3.00703 17.4276L2.98173 17.2952L2.948 17.171L2.9227 17.0386L2.8974 16.9062L2.88053 16.7821L2.86367 16.6497L2.83837 16.5255L2.82994 16.3931L2.81307 16.269L2.80464 16.1366L2.78777 16.0124V15.88L2.77934 15.7559L2.77091 15.6317V15.4993V15.3752V15.251L2.77934 15.1269V15.0028L2.78777 14.8786L2.79621 14.7545L2.80464 14.6386L2.8215 14.5145L2.82994 14.3986L2.8468 14.2745L2.86367 14.1586L2.88053 14.0345L2.90583 13.9186L2.9227 13.8028L2.948 13.6869L2.9733 13.571L2.99859 13.4634L3.03233 13.3476L3.05762 13.24L3.09136 13.1241L3.12509 13.0166L3.15882 12.909L3.19255 12.8014L3.22628 12.6938L3.26845 12.5862L3.30218 12.4869L3.34434 12.3793L3.38651 12.28L3.42867 12.1807L3.47084 12.0814L3.513 11.9821L3.5636 11.8828L3.60576 11.7917L3.65636 11.6924L3.70696 11.6014L3.75755 11.5103L3.80815 11.4193L3.85875 11.3283L3.90935 11.2372L3.96838 11.1545L4.01897 11.0634L4.078 10.9807L4.13703 10.8979L4.18763 10.8152L4.24666 10.7324L4.30569 10.6579L4.36472 10.5752L4.42375 10.5007L4.48278 10.4262L4.54181 10.3517L4.60928 10.2772L4.66831 10.211L4.72734 10.1366L4.7948 10.0703L4.85383 10.0041L4.92129 9.93793L4.98032 9.87172L5.04779 9.80552L5.11525 9.74759L5.17428 9.68138L5.24174 9.62345L5.30921 9.56552L5.36824 9.50759L5.4357 9.45793L5.50316 9.4L5.57063 9.35034L5.63809 9.30069L5.69712 9.24276L5.76458 9.1931L5.83205 9.15172L5.89951 9.10207L5.96697 9.06069L6.026 9.01103L6.09346 8.96966L6.16093 8.92828L6.22839 8.8869L6.28742 8.84552L6.35488 8.80414L6.42235 8.77103L6.48138 8.73793L6.54884 8.69655L6.6163 8.66345L6.67533 8.63034L6.7428 8.59724L6.80183 8.56414L6.86929 8.53931L6.92832 8.50621L6.98735 8.48138L7.05481 8.45655L7.11384 8.42345L7.17288 8.39862L7.23191 8.37379L7.29094 8.35724L7.34997 8.33241L7.409 8.30759L7.46803 8.29103L7.52706 8.26621L7.57765 8.24966L7.63668 8.22483L7.69571 8.20828L7.74631 8.19172L7.80534 8.17517L7.85594 8.15862L7.90654 8.14207L7.96557 8.12552L8.01616 8.11724L8.06676 8.10069L8.11736 8.08414L8.16796 8.07586L8.21855 8.05931L8.26915 8.05103L8.31132 8.03448L8.36191 8.02621L8.41251 8.01793L8.45467 8.00138L8.50527 7.9931L8.54744 7.98483L8.5896 7.97655L8.63176 7.96828L8.67393 7.96L8.71609 7.95172L8.75826 7.94345L8.80042 7.93517L8.84259 7.9269L8.88475 7.91862L8.91848 7.91034L8.96065 7.90207L8.99438 7.89379L9.03654 7.88552L9.07028 7.87724L9.10401 7.86897L9.13774 7.86069L9.17147 7.85241L9.21363 7.84414L9.23893 7.83586H9.27266L9.3064 7.82759L9.34013 7.81931L9.37386 7.81103L9.39916 7.80276L9.43289 7.79448L9.45819 7.77793L9.49192 7.76966L9.51722 7.76138L9.55095 7.7531L9.57625 7.74483L9.60155 7.73655L9.62685 7.72L9.66058 7.71172L9.68588 7.70345L9.71117 7.6869L9.73647 7.67862L9.76177 7.67034L9.78707 7.65379L9.81237 7.63724L9.82924 7.62897L9.85453 7.61241L9.87983 7.59586L9.90513 7.58759L9.93043 7.57103L9.9473 7.55448L9.97259 7.53793L9.99789 7.52138L10.0232 7.50483L10.0401 7.48828L10.0654 7.47172L10.0907 7.4469L10.1075 7.43034L10.1328 7.41379L10.1581 7.38897L10.175 7.37241L10.2003 7.34759L10.2256 7.33103L10.2424 7.30621L10.2677 7.28138L10.293 7.25655L10.3183 7.24L10.3352 7.21517L10.3605 7.19035L10.3858 7.16552L10.4111 7.13241L10.4364 7.10759L10.4617 7.08276L10.487 7.05793L10.5123 7.02483L10.5376 7L10.5629 6.9669L10.5882 6.94207L10.6135 6.90897L10.6472 6.87586L10.6725 6.85103L10.6978 6.81793L10.7316 6.78483L10.7569 6.75172L10.7906 6.71862L10.8243 6.68552L10.8496 6.65241L10.8833 6.61931L10.9171 6.58621L10.9508 6.5531L10.9845 6.51172L11.0183 6.47862L11.052 6.44552L11.0942 6.40414L11.1279 6.37103L11.1616 6.33793L11.2038 6.29655L11.246 6.26345L11.2797 6.22207L11.3219 6.18897L11.364 6.14759L11.4062 6.10621L11.4483 6.0731L11.4989 6.03172L11.5411 5.99862L11.5917 5.95724L11.6339 5.91586L11.6845 5.88276L11.7351 5.84138L11.7857 5.8L11.8363 5.7669L11.8869 5.72552L11.9375 5.68414L11.9965 5.65103L12.0471 5.60966L12.1061 5.56828L12.1651 5.53517L12.2242 5.49379L12.2832 5.45241L12.3422 5.41931L12.4013 5.37793L12.4687 5.34483L12.5278 5.31172L12.5952 5.27034L12.6627 5.23724L12.7301 5.19586L12.7976 5.16276L12.8651 5.12966L12.941 5.09655L13.0084 5.06345L13.0843 5.03034L13.1602 4.99724L13.2277 4.96414L13.3036 4.93103L13.3879 4.89793L13.4638 4.8731L13.5397 4.84L13.624 4.81517L13.6999 4.78207L13.7843 4.75724L13.8686 4.73241L13.9529 4.70759L14.0372 4.68276L14.1216 4.65793L14.2143 4.6331L14.2987 4.60828L14.3914 4.59172L14.4842 4.5669L14.577 4.55034L14.6613 4.53379L14.7625 4.50897L14.8552 4.49241L14.948 4.48414L15.0408 4.46759L15.142 4.45103L15.2432 4.44276L15.3359 4.43448L15.4371 4.42621L15.5383 4.41793L15.6395 4.40966L15.7407 4.40138H15.8419L15.9515 4.3931H16.0527H16.1539L16.2635 4.40138H16.3732H16.4744L16.584 4.40966L16.6936 4.41793L16.8032 4.42621L16.9129 4.43448L17.0225 4.45103L17.1321 4.45931L17.2417 4.47586L17.3514 4.49241L17.461 4.50897L17.5706 4.53379L17.6887 4.55034L17.7983 4.57517L17.9079 4.6L18.026 4.6331L18.1356 4.65793L18.2453 4.69103L18.3633 4.71586L18.4729 4.74897L18.591 4.79034L18.7006 4.82345L18.8187 4.86483L18.9283 4.90621L19.0464 4.94759L19.156 4.98897L19.2741 5.03862L19.3837 5.08828L19.4933 5.13793L19.6114 5.18759L19.721 5.23724L19.8306 5.29517L19.9487 5.3531L20.0583 5.41103L20.168 5.46897L20.2776 5.53517L20.3872 5.5931L20.4968 5.65931L20.6065 5.73379L20.7161 5.8L20.8257 5.87448L20.9354 5.94897L21.0365 6.02345L21.1462 6.09793L21.2474 6.17241L21.357 6.25517L21.4582 6.33793L21.5594 6.42069L21.6606 6.51172L21.7618 6.59448L21.863 6.68552L21.9642 6.77655L22.0654 6.86759L22.1581 6.9669L22.2509 7.05793L22.3521 7.15724L22.4448 7.25655L22.5376 7.35586L22.6304 7.46345L22.7147 7.56276L22.8074 7.67034L22.8918 7.77793L22.9761 7.88552L23.0604 8.00138L23.1448 8.10897L23.2291 8.22483L23.305 8.34069L23.3893 8.45655L23.4652 8.58069L23.5411 8.69655L23.617 8.82069L23.6845 8.93655L23.7604 9.06069L23.8278 9.1931L23.8953 9.31724L23.9543 9.44138L24.0218 9.57379L24.0808 9.70621L24.1483 9.83034L24.1989 9.96276L24.2579 10.1034L24.3169 10.2359L24.3675 10.3683L24.4181 10.509L24.4687 10.6497L24.5109 10.7821L24.5531 10.9228L24.5952 11.0634L24.6374 11.2041L24.6796 11.3531L24.7133 11.4938L24.747 11.6345L24.7807 11.7834L24.8145 11.9241L24.8398 12.0731L24.8651 12.2221L24.8904 12.371L24.9072 12.5117L24.9241 12.6607L24.941 12.8097L24.9578 12.9586L24.9747 13.1159L24.9831 13.2648L24.9916 13.4138V13.5628L25 13.7117V13.869V14.0179L24.9916 14.1669V14.3241L24.9831 14.4731L24.9663 14.6221L24.9578 14.7793L24.941 14.9283L24.9241 15.0772L24.9072 15.2345L24.8819 15.3834L24.8566 15.5324L24.8313 15.6897L24.7976 15.8386L24.7723 15.9876L24.7386 16.1366L24.6964 16.2855L24.6627 16.4345L24.6205 16.5834L24.5784 16.7324L24.5362 16.8814L24.4856 17.0303L24.435 17.171L24.3844 17.32L24.3254 17.4607L24.2748 17.6097L24.2157 17.7503L24.1567 17.891L24.0892 18.04L24.0218 18.1807L23.9543 18.3131L23.8869 18.4538L23.8194 18.5945L23.7435 18.7269L23.6676 18.8676L23.5917 19L23.5074 19.1324L23.4315 19.2648L23.3472 19.3972L23.2544 19.5297L23.1701 19.6538L23.0773 19.7862L22.9845 19.9103L22.8918 20.0345L22.799 20.1586L22.7063 20.2745L22.6051 20.3986L22.5039 20.5145L22.4027 20.6303L22.293 20.7462L22.1919 20.8621L22.0822 20.9779L21.9726 21.0855L21.863 21.1931L21.7533 21.3007L21.6353 21.4083L21.5172 21.5076L21.3992 21.6152L21.2811 21.7145L21.163 21.8138L21.045 21.9048L20.9185 22.0041L20.8004 22.0952L20.6739 22.1862L20.5474 22.2772L20.4209 22.36L20.286 22.4428L20.1595 22.5255L20.0246 22.6083L19.8981 22.691L19.7632 22.7655L19.6283 22.84L19.4933 22.9145L19.3584 22.9807L19.2235 23.0552L19.0801 23.1214L18.9452 23.1793L18.8103 23.2455L18.6669 23.3034L18.5235 23.3614L18.3886 23.4193L18.2453 23.4772L18.1019 23.5269L17.9585 23.5766L17.8152 23.6179L17.6718 23.6676L17.5285 23.709L17.3851 23.7503L17.2333 23.7917L17.09 23.8248L16.9466 23.8579L16.8032 23.891L16.6514 23.9241L16.5081 23.949L16.3647 23.9738L16.2129 23.9986L16.0696 24.0152L15.9262 24.04L15.7744 24.0566L15.6311 24.0731L15.4877 24.0814L15.3359 24.0897L15.1926 24.0979L15.0492 24.1062H14.9058L14.7625 24.1145H14.6191L14.4673 24.1062H14.324L14.189 24.0979L14.0457 24.0897L13.9023 24.0814L13.759 24.0648L13.6156 24.0566L13.4807 24.04L13.3373 24.0152L13.2024 23.9986L13.059 23.9738L12.9241 23.949L12.7892 23.9241L12.6543 23.8993L12.5193 23.8662L12.3844 23.8331L12.2495 23.8L12.123 23.7669L11.9881 23.7338L11.8616 23.6924L11.7266 23.651L11.6001 23.6097L11.4736 23.5683L11.3472 23.5186L11.2291 23.469L11.1026 23.4276L10.9845 23.3779L10.858 23.32L10.74 23.2703L10.6219 23.2124L10.5039 23.1545L10.3858 23.0966L10.2762 23.0386L10.1581 22.9807L10.0485 22.9228L9.93886 22.8566L9.82924 22.7903L9.71961 22.7241L9.61841 22.6579L9.50879 22.5917L9.40759 22.5255L9.3064 22.451L9.2052 22.3848L9.10401 22.3103L9.01124 22.2359L8.91848 22.1614L8.81729 22.0869L8.72453 22.0124L8.6402 21.9297L8.54744 21.8552L8.46311 21.7807L8.37035 21.6979L8.28602 21.6152L8.20169 21.5324L8.12579 21.4497L8.04146 21.3669L7.96557 21.2841L7.88967 21.2014L7.81377 21.1186L7.73788 21.0359L7.67042 20.9531L7.59452 20.8621L7.52706 20.7793L7.45959 20.6883L7.40056 20.6055L7.3331 20.5145L7.27407 20.4317L7.21504 20.3407L7.15601 20.2497L7.09698 20.1586L7.03795 20.0759L6.98735 19.9848L6.93675 19.8938L6.87772 19.8028L6.83556 19.72L6.78496 19.629L6.73436 19.5379L6.6922 19.4469L6.65004 19.3559L6.60787 19.2731L6.56571 19.1821L6.53198 19.091L6.48981 19L6.45608 18.9172L6.42235 18.8262L6.38862 18.7352L6.35488 18.6524L6.32959 18.5614L6.29585 18.4786L6.27056 18.3876L6.24526 18.3048L6.21996 18.2138L6.19466 18.131L6.17779 18.04L6.1525 17.9572L6.13563 17.8745L6.11876 17.7917L6.1019 17.709L6.08503 17.6179L6.06817 17.5352L6.05973 17.4607L6.04287 17.3779L6.03443 17.2952L6.026 17.2124L6.01757 17.1379L6.00914 17.0552L6.0007 16.9807L5.99227 16.8979V16.8234L5.98384 16.749V16.6662L5.9754 16.5917V16.5172V16.451V16.3766V16.3021L5.98384 16.2359V16.1614V16.0952L5.99227 16.0207L6.0007 15.9545V15.8883L6.00914 15.8221L6.01757 15.7559L6.026 15.6897L6.03443 15.6317L6.04287 15.5655L6.0513 15.4993L6.05973 15.4414L6.06817 15.3834L6.0766 15.3255L6.09346 15.2676L6.1019 15.2097L6.11033 15.1517L6.1272 15.0938L6.13563 15.0359L6.1525 14.9862L6.16093 14.9283L6.17779 14.8786L6.18623 14.8207L6.20309 14.771L6.21153 14.7214L6.22839 14.6717L6.24526 14.6221L6.25369 14.5724L6.27056 14.531L6.28742 14.4814L6.29585 14.44L6.31272 14.3903L6.32959 14.349L6.33802 14.3076L6.35488 14.2579L6.36332 14.2166L6.38018 14.1752L6.39705 14.1338L6.40548 14.1007L6.42235 14.0593L6.43078 14.0179L6.44765 13.9848L6.45608 13.9434L6.47295 13.9103L6.48138 13.869L6.49824 13.8359L6.50668 13.8028L6.52354 13.7614L6.53198 13.7283L6.54041 13.6952L6.54884 13.6621L6.56571 13.629L6.57414 13.6041L6.58257 13.571L6.59101 13.5379L6.59944 13.5048L6.60787 13.4717L6.6163 13.4469L6.62474 13.4138V13.389L6.63317 13.3559L6.6416 13.331L6.65004 13.2979V13.2731L6.65847 13.24V13.2152L6.6669 13.1903V13.1572V13.1324L6.67533 13.1076V13.0745V13.0497V13.0248V12.9917V12.9669V12.9421V12.909L6.6669 12.8841V12.8593V12.8262L6.65847 12.8014V12.7766V12.7434L6.65004 12.7186L6.6416 12.6855V12.6607L6.63317 12.6276L6.62474 12.6028L6.6163 12.5697L6.60787 12.5448L6.59944 12.5117L6.59101 12.4786L6.58257 12.4538L6.57414 12.4207L6.56571 12.3876L6.55727 12.3545L6.54884 12.3214L6.54041 12.2883L6.52354 12.2552L6.51511 12.2221L6.50668 12.189L6.48981 12.1476L6.48138 12.1145L6.46451 12.0814L6.45608 12.04L6.43921 12.0069L6.43078 11.9655L6.41392 11.9241L6.40548 11.8828L6.38862 11.8497L6.37175 11.8083L6.36332 11.7669L6.34645 11.7255L6.32959 11.6759L6.32115 11.6345L6.30429 11.5931L6.29585 11.5434L6.27899 11.5021L6.26212 11.4524L6.25369 11.4028L6.23682 11.3531L6.21996 11.3034L6.21153 11.2538L6.19466 11.2041L6.18623 11.1545L6.16936 11.1048L6.1525 11.0469L6.14406 10.9972L6.1272 10.9393L6.11876 10.8814L6.11033 10.8317L6.09346 10.7738L6.08503 10.7159L6.0766 10.6497L6.06817 10.5917L6.0513 10.5338L6.04287 10.4676L6.03443 10.4097L6.026 10.3434L6.01757 10.2855L6.00914 10.2193V10.1531L6.0007 10.0869L5.99227 10.0207V9.94621L5.98384 9.88V9.80552V9.73931L5.9754 9.66483V9.59862V9.52414V9.44966L5.98384 9.37517V9.30069V9.22621L5.99227 9.14345V9.06897L6.0007 8.99448L6.00914 8.91172L6.01757 8.83724L6.026 8.75448L6.03443 8.67172L6.0513 8.58897L6.05973 8.50621L6.0766 8.42345L6.09346 8.34069L6.11033 8.25793L6.1272 8.17517L6.14406 8.09241L6.16093 8.00965L6.18623 7.91862L6.21153 7.83586L6.22839 7.7531L6.25369 7.66207L6.27899 7.57931L6.31272 7.48828L6.33802 7.40552L6.37175 7.31448L6.40548 7.22345L6.43921 7.14069L6.47295 7.04966L6.50668 6.95862L6.54884 6.86759L6.58257 6.78483L6.62474 6.69379L6.6669 6.60276L6.70907 6.51172L6.75966 6.42897L6.80183 6.33793L6.85243 6.2469L6.90302 6.15586L6.95362 6.06483L7.00422 5.98207L7.06325 5.89103L7.12228 5.8L7.17288 5.70897L7.23191 5.62621L7.29937 5.53517L7.3584 5.45241L7.42586 5.36138L7.49332 5.27034L7.56079 5.18759L7.62825 5.10483L7.69571 5.01379L7.77161 4.93103L7.84751 4.84828L7.9234 4.76552L7.9993 4.67448L8.07519 4.59172L8.15952 4.50897L8.23542 4.43448L8.31975 4.35172L8.41251 4.26897L8.49684 4.19448L8.58117 4.11172L8.67393 4.03724L8.76669 3.95448L8.85945 3.88L8.95221 3.80552L9.05341 3.73103L9.14617 3.66483L9.24737 3.59034L9.34856 3.51586L9.44976 3.44966L9.55095 3.38345L9.66058 3.30897L9.7702 3.24276L9.8714 3.18483L9.98103 3.11862L10.0907 3.05241L10.2087 2.99448L10.3183 2.93655L10.4364 2.87862L10.5545 2.82069L10.6725 2.76276L10.7906 2.7131L10.9086 2.65517L11.0267 2.60552L11.1532 2.55586L11.2797 2.50621L11.3978 2.46483L11.5242 2.41517L11.6507 2.37379L11.7857 2.33241L11.9122 2.29103L12.0387 2.25793L12.1736 2.21655L12.3085 2.18345L12.4434 2.15034L12.5699 2.11724L12.7049 2.09241L12.8482 2.06759L12.9831 2.04276L13.1181 2.01793L13.253 1.9931L13.3963 1.97655L13.5397 1.96L13.6746 1.94345L13.818 1.9269L13.9614 1.91862L14.1047 1.90207H14.2396L14.383 1.89379L14.5264 1.88552H14.6781H14.8215L14.9649 1.89379H15.1082L15.2516 1.90207L15.3949 1.91034L15.5467 1.9269L15.6901 1.93517L15.8335 1.95172L15.9852 1.96828L16.1286 1.9931L16.272 2.00966L16.4238 2.03448L16.5671 2.05931L16.7105 2.09241L16.8623 2.11724L17.0056 2.15034L17.149 2.19172L17.2923 2.22483L17.4441 2.26621L17.5875 2.30759L17.7309 2.34897L17.8742 2.39862L18.0176 2.44828L18.1609 2.49793L18.3043 2.54759L18.4392 2.60552L18.5826 2.66345L18.7259 2.72138L18.8609 2.77931L19.0042 2.84552L19.1391 2.91172L19.2741 2.97793L19.4174 3.04414L19.5524 3.11862L19.6873 3.1931L19.8138 3.26759L19.9487 3.34207L20.0836 3.42483L20.2101 3.50759L20.345 3.59034L20.4715 3.6731L20.598 3.76414L20.7245 3.85517L20.851 3.94621L20.9691 4.03724L21.0956 4.12828L21.2136 4.22759L21.3317 4.3269L21.4498 4.42621L21.5678 4.53379L21.6859 4.6331L21.7955 4.74069L21.9051 4.84828L22.0148 4.95586L22.1244 5.07172L22.234 5.18759L22.3352 5.29517L22.4448 5.41103L22.546 5.53517L22.6472 5.65103L22.74 5.77517L22.8412 5.89103L22.9339 6.01517L23.0267 6.13931L23.1195 6.27172L23.2038 6.39586L23.2966 6.52828L23.3809 6.65241L23.4652 6.78483L23.5411 6.91724L23.617 7.05793L23.7013 7.19035L23.7772 7.32276L23.8447 7.46345L23.9206 7.60414L23.9881 7.73655L24.0555 7.87724L24.1145 8.01793L24.182 8.1669L24.241 8.30759L24.3001 8.44828L24.3507 8.59724L24.4013 8.73793L24.4519 8.8869L24.5025 9.03586L24.5531 9.17655L24.5952 9.32552L24.6374 9.47448L24.6796 9.62345L24.7133 9.77241L24.747 9.92138L24.7807 10.0703L24.8145 10.2276L24.8398 10.3766L24.8651 10.5255L24.8904 10.6745L24.9157 10.8317L24.9325 10.9807L24.9494 11.1297L24.9578 11.2869L24.9747 11.4359L24.9831 11.5848L24.9916 11.7421L25 11.891V12.04V12.1972V12.3462L24.9916 12.4952L24.9831 12.6524L24.9747 12.8014L24.9663 12.9503L24.9494 13.0993L24.941 13.2483L24.9241 13.3972L24.8988 13.5462L24.8819 13.6952L24.8566 13.8359L24.8313 13.9848L24.7976 14.1338L24.7639 14.2745L24.7386 14.4234L24.6964 14.5641L24.6627 14.7048L24.6205 14.8538L24.5784 14.9945L24.5362 15.1352L24.494 15.2759L24.4434 15.4083L24.3928 15.549L24.3422 15.6814L24.2916 15.8221L24.2326 15.9545L24.182 16.0869L24.123 16.2193L24.0555 16.3517L23.9965 16.4841L23.929 16.6083L23.87 16.7324L23.7941 16.8648L23.7266 16.989L23.6592 17.1131L23.5833 17.229L23.5074 17.3531L23.4315 17.469L23.3556 17.5931L23.2797 17.709L23.1954 17.8166L23.111 17.9324L23.0267 18.0483L22.9424 18.1559L22.858 18.2634L22.7737 18.371L22.681 18.4786L22.5882 18.5779L22.4954 18.6855L22.4027 18.7848L22.3099 18.8841L22.2171 18.9834L22.116 19.0745L22.0232 19.1655L21.922 19.2648L21.8208 19.3476L21.7196 19.4386L21.6184 19.5297L21.5172 19.6124L21.416 19.6952L21.3148 19.7779L21.2052 19.8524L21.104 19.9352L20.9944 20.0097L20.8848 20.0841L20.7836 20.1586L20.6739 20.2248L20.5643 20.2993L20.4547 20.3655L20.345 20.4317L20.2354 20.4897L20.1258 20.5559L20.0077 20.6138L19.8981 20.6717L19.7885 20.7297L19.6788 20.7793L19.5608 20.8372L19.4512 20.8869L19.3331 20.9366L19.2235 20.9779L19.1138 21.0276L18.9958 21.069L18.8862 21.1103L18.7681 21.1517L18.6585 21.1931L18.5404 21.2262L18.4308 21.2593L18.3127 21.2924L18.2031 21.3255L18.0935 21.3503L17.9754 21.3834L17.8658 21.4083L17.7477 21.4331L17.6381 21.4579L17.5285 21.4745L17.4188 21.491L17.3008 21.5159L17.1911 21.5324L17.0815 21.5407L16.9719 21.5572L16.8623 21.5655L16.7526 21.5738L16.6514 21.5821L16.5418 21.5903L16.4322 21.5986H16.3226L16.2214 21.6069H16.1117H16.0105L15.9093 21.5986H15.7997L15.6985 21.5903H15.5973L15.4961 21.5821L15.3949 21.5738L15.3022 21.5655L15.201 21.549L15.0998 21.5407L15.007 21.5241L14.9058 21.5159L14.8131 21.4993L14.7203 21.4828L14.6275 21.4662L14.5348 21.4414L14.442 21.4248L14.3577 21.4L14.2649 21.3834L14.1806 21.3586L14.0878 21.3338L14.0035 21.309L13.9192 21.2841L13.8349 21.2593L13.7505 21.2345L13.6662 21.2014L13.5903 21.1766L13.506 21.1434L13.4301 21.1186L13.3542 21.0855L13.2783 21.0524L13.2024 21.0276L13.1265 20.9945L13.0506 20.9614L12.9831 20.9283L12.9072 20.8869L12.8398 20.8538L12.7723 20.8207L12.7049 20.7876L12.6374 20.7462L12.5699 20.7131L12.5025 20.68L12.4434 20.6386L12.376 20.6055L12.3169 20.5641L12.2579 20.531L12.1989 20.4897L12.1398 20.4566L12.0808 20.4152L12.0302 20.3738L11.9712 20.3407L11.9206 20.2993L11.87 20.2579L11.811 20.2248L11.7604 20.1834L11.7098 20.1421L11.6676 20.109L11.617 20.0676L11.5664 20.0262L11.5242 19.9931L11.4821 19.9517L11.4315 19.9103L11.3893 19.8772L11.3472 19.8359L11.305 19.8028L11.2628 19.7614L11.2291 19.72L11.1869 19.6869L11.1532 19.6538L11.111 19.6124L11.0773 19.5793L11.0436 19.5379L11.0014 19.5048L10.9677 19.4717L10.9339 19.4386L10.9002 19.3972L10.8749 19.3641L10.8412 19.331L10.8075 19.2979L10.7737 19.2648L10.7484 19.2317L10.7147 19.1986L10.6894 19.1738L10.6641 19.1407L10.6304 19.1076L10.6051 19.0745L10.5798 19.0497L10.5545 19.0166L10.5292 18.9917L10.5039 18.9586L10.4786 18.9338L10.4533 18.909L10.428 18.8759L10.4027 18.851L10.3774 18.8262L10.3521 18.8014L10.3268 18.7766L10.3099 18.7517L10.2846 18.7269L10.2593 18.7103L10.234 18.6855L10.2171 18.6607L10.1918 18.6441L10.1666 18.6193L10.1497 18.6028L10.1244 18.5779L10.0991 18.5614L10.0822 18.5448L10.0569 18.52L10.0316 18.5034L10.0063 18.4869L9.98946 18.4703L9.96416 18.4538L9.93886 18.4372L9.922 18.4207L9.8967 18.4124L9.8714 18.3959L9.8461 18.3793L9.8208 18.371L9.7955 18.3545L9.7702 18.3379L9.74491 18.3297L9.71961 18.3131L9.69431 18.3048L9.66901 18.2966L9.64371 18.28L9.61841 18.2717L9.59311 18.2634L9.56782 18.2552L9.53408 18.2386L9.50879 18.2303L9.47505 18.2221L9.44976 18.2138L9.41602 18.2055L9.39072 18.1972L9.35699 18.189L9.32326 18.1807L9.29796 18.1724L9.26423 18.1641L9.2305 18.1559L9.19677 18.1476L9.16304 18.1393L9.12931 18.131L9.08714 18.1228H9.05341L9.01968 18.1145L8.97751 18.1062L8.94378 18.0979L8.90162 18.0897L8.86789 18.0814L8.82572 18.0731L8.78356 18.0648L8.74139 18.0566L8.69923 18.0483L8.65706 18.04L8.6149 18.0317L8.57273 18.0234L8.53057 18.0069L8.47997 17.9986L8.43781 17.9903L8.38721 17.9821L8.34505 17.9655L8.29445 17.9572L8.24385 17.949L8.20169 17.9324L8.15109 17.9241L8.10049 17.9076L8.0499 17.891L7.99087 17.8828L7.94027 17.8662L7.88967 17.8497L7.83907 17.8331L7.78004 17.8166L7.72945 17.8L7.67042 17.7834L7.61139 17.7669L7.56079 17.7421L7.50176 17.7255L7.44273 17.7007L7.3837 17.6841L7.32467 17.6593L7.26564 17.6345L7.20661 17.6097L7.14758 17.5848L7.08855 17.56L7.02952 17.5352L6.96205 17.5103L6.90302 17.4772L6.84399 17.4524L6.77653 17.4193L6.7175 17.3862L6.65004 17.3531L6.59101 17.32L6.52354 17.2869L6.45608 17.2538L6.39705 17.2124L6.32959 17.1793L6.26212 17.1379L6.20309 17.0966L6.13563 17.0552L6.06817 17.0138L6.0007 16.9724L5.93324 16.9228L5.87421 16.8814L5.80675 16.8317L5.73928 16.7821L5.67182 16.7324L5.60436 16.6828L5.54533 16.6331L5.47786 16.5752L5.4104 16.5255L5.34294 16.4676L5.28391 16.4097L5.21644 16.3517L5.14898 16.2938L5.08995 16.2276L5.02249 16.1697L4.95502 16.1034L4.89599 16.0372L4.82853 15.971L4.7695 15.9048L4.70204 15.8303L4.64301 15.7641L4.58398 15.6897L4.51651 15.6152L4.45748 15.5407L4.39845 15.4662L4.33942 15.3917L4.28039 15.309L4.22136 15.2345L4.16233 15.1517L4.11174 15.069L4.05271 14.9862L4.00211 14.9034L3.94308 14.8124L3.89248 14.7214L3.84188 14.6386L3.79129 14.5476L3.73226 14.4566L3.69009 14.3655L3.63949 14.2662L3.5889 14.1752L3.54673 14.0759L3.49614 13.9766L3.45397 13.8772L3.41181 13.7779L3.36964 13.6786L3.32748 13.5793L3.28531 13.4717L3.25158 13.3641L3.20942 13.2648L3.17569 13.1572L3.14195 13.0497L3.10822 12.9421L3.07449 12.8262L3.04919 12.7186L3.01546 12.6028L2.99016 12.4952L2.96486 12.3793L2.93956 12.2634L2.91427 12.1476L2.8974 12.0317L2.8721 11.9159L2.85524 11.7917L2.83837 11.6759L2.82994 11.56L2.81307 11.4359L2.80464 11.3117L2.79621 11.1959L2.78777 11.0717L2.77934 10.9476L2.77091 10.8234V10.6993V10.5752V10.4428V10.3186L2.77934 10.1945L2.78777 10.0703L2.79621 9.93793L2.80464 9.81379L2.8215 9.68138L2.82994 9.55724L2.8468 9.42483L2.86367 9.29241L2.88897 9.16828L2.91427 9.03586L2.93113 8.91172L2.96486 8.77931L2.99016 8.6469L3.02389 8.52276L3.04919 8.39035L3.08292 8.25793L3.12509 8.13379L3.15882 8.00138L3.20098 7.86897L3.24315 7.74483L3.29375 7.61241L3.33591 7.48L3.38651 7.35586L3.4371 7.22345L3.4877 7.09931L3.54673 6.97517L3.60576 6.84276L3.66479 6.71862L3.72382 6.59448L3.78285 6.47034L3.85032 6.34621L3.91778 6.22207L3.98524 6.09793L4.06114 5.97379L4.13703 5.84966L4.21293 5.72552L4.28883 5.60966L4.36472 5.48552L4.44905 5.36966L4.53338 5.25379L4.61771 5.13793L4.70204 5.02207L4.7948 4.90621L4.88756 4.79034L4.98032 4.67448L5.07309 4.5669L5.17428 4.45103L5.26704 4.34345L5.36824 4.23586L5.46943 4.12828L5.57906 4.02897L5.68025 3.92138L5.78988 3.82207L5.89951 3.71448L6.00914 3.61517L6.1272 3.51586L6.23682 3.42483L6.35488 3.32552L6.47295 3.23448L6.59101 3.13517L6.7175 3.05241L6.83556 2.96138L6.96205 2.87034L7.08855 2.78759L7.21504 2.70483L7.34153 2.62207L7.47646 2.53931L7.60295 2.45655L7.73788 2.38207L7.8728 2.30759L8.00773 2.2331L8.14266 2.1669L8.28602 2.09241L8.42094 2.02621L8.5643 1.96L8.70766 1.90207L8.84259 1.83586L8.98595 1.77793L9.13774 1.72L9.2811 1.66207L9.42446 1.61241L9.57625 1.56276L9.71961 1.5131L9.8714 1.46345L10.0232 1.42207L10.175 1.38069L10.3268 1.33931L10.4786 1.29793L10.6304 1.26483L10.7822 1.23172L10.9339 1.19862L11.0857 1.17379L11.246 1.14069L11.3978 1.11586L11.558 1.09931L11.7098 1.07448L11.87 1.05793L12.0218 1.04138L12.182 1.0331L12.3422 1.01655L12.494 1.00828H12.6543L12.8145 1H12.9663H13.1265H13.2867L13.4385 1.00828L13.5987 1.01655L13.759 1.02483L13.9108 1.04138L14.071 1.04966L14.2312 1.06621L14.383 1.09103L14.5432 1.10759L14.695 1.13241L14.8468 1.15724L15.007 1.19034L15.1588 1.21517L15.3106 1.24828L15.4624 1.28966L15.6142 1.32276L15.766 1.36414L15.9178 1.40552L16.0696 1.4469L16.2214 1.49655L16.3732 1.54621L16.5165 1.59586L16.6599 1.64552L16.8117 1.70345L16.955 1.7531L17.0984 1.81103L17.2417 1.87724L17.3851 1.93517L17.52 2.00138L17.6634 2.06759L17.7983 2.13379L17.9417 2.20828L18.0766 2.28276L18.2115 2.35724L18.3465 2.43172L18.4729 2.50621L18.6079 2.58897L18.7344 2.67172L18.8609 2.75448L18.9874 2.83724L19.1138 2.92828L19.2403 3.01103L19.3584 3.10207L19.4765 3.1931L19.5945 3.29241L19.7126 3.38345L19.8306 3.48276L19.9403 3.58207L20.0583 3.68138L20.168 3.78069L20.2776 3.88L20.3788 3.98759L20.4884 4.0869L20.5896 4.19448L20.6908 4.30207L20.792 4.40966L20.8848 4.52552L20.9859 4.6331L21.0787 4.74897L21.1715 4.85655L21.2642 4.97241L21.3486 5.08828L21.4329 5.20414L21.5172 5.32L21.6015 5.44414L21.6859 5.56L21.7618 5.68414L21.8377 5.8L21.9136 5.92414L21.981 6.04828L22.0569 6.17241L22.1244 6.29655L22.1919 6.42069L22.2509 6.54483L22.3183 6.66897L22.3774 6.7931L22.4364 6.92552L22.487 7.04966L22.546 7.17379L22.5966 7.30621L22.6472 7.43034L22.6894 7.56276L22.74 7.69517L22.7822 7.81931L22.8243 7.95172L22.858 8.07586L22.9002 8.20828L22.9339 8.34069L22.9677 8.46483L23.0014 8.59724L23.0267 8.72966L23.052 8.85379L23.0773 8.98621L23.1026 9.11862L23.1279 9.24276L23.1448 9.37517L23.1616 9.50759L23.1785 9.63172L23.1869 9.76414L23.2038 9.88828L23.2122 10.0207L23.2207 10.1448V10.269L23.2291 10.4014V10.5255V10.6497V10.7738L23.2207 10.8979V11.0221L23.2122 11.1462L23.2038 11.2703L23.1869 11.3862L23.1785 11.5103L23.1616 11.6262L23.1448 11.7503L23.1279 11.8662L23.111 11.9821L23.0942 12.1062L23.0689 12.2221L23.0436 12.3297L23.0183 12.4455L22.993 12.5614L22.9677 12.6772L22.9339 12.7848L22.9002 12.8924L22.8749 13.0083L22.8412 13.1159L22.799 13.2234L22.7653 13.3228L22.7316 13.4303L22.6894 13.5379L22.6472 13.6372L22.6051 13.7366L22.5629 13.8441L22.5207 13.9434L22.4701 14.0345L22.428 14.1338L22.3774 14.2331L22.3352 14.3241L22.2846 14.4152L22.234 14.5145L22.1834 14.6055L22.1328 14.6883L22.0738 14.7793L22.0232 14.8621L21.9642 14.9531L21.9136 15.0359L21.8545 15.1186L21.7955 15.2014L21.7449 15.2841L21.6859 15.3586L21.6268 15.4414L21.5594 15.5159L21.5004 15.5903L21.4413 15.6648L21.3823 15.7393L21.3233 15.8055L21.2558 15.88L21.1968 15.9462L21.1293 16.0124L21.0703 16.0786L21.0028 16.1448L20.9354 16.2028L20.8763 16.269L20.8089 16.3269L20.7414 16.3848L20.6824 16.4428L20.6149 16.5007L20.5474 16.5586L20.48 16.6083L20.4209 16.6662L20.3535 16.7159L20.286 16.7655L20.2186 16.8152L20.1511 16.8566L20.0921 16.9062L20.0246 16.9559L19.9571 16.9972L19.8897 17.0386L19.8222 17.08L19.7632 17.1214L19.6957 17.1628L19.6283 17.1959L19.5692 17.2372L19.5018 17.2703L19.4343 17.3117L19.3753 17.3448L19.3078 17.3779L19.2488 17.411L19.1813 17.4359L19.1223 17.469L19.0632 17.4938L18.9958 17.5269L18.9368 17.5517L18.8777 17.5766L18.8187 17.6014L18.7597 17.6262L18.7006 17.651L18.6416 17.6759L18.5826 17.6924L18.5235 17.7172L18.4645 17.7338L18.4055 17.7586L18.3549 17.7752L18.2959 17.7917L18.2368 17.8083L18.1862 17.8248L18.1356 17.8414L18.0766 17.8579L18.026 17.8745L17.9754 17.891L17.9248 17.8993L17.8742 17.9159L17.8236 17.9324L17.773 17.9407L17.7224 17.9572L17.6718 17.9655L17.6297 17.9738L17.5791 17.9903L17.5369 17.9986L17.4863 18.0069L17.4441 18.0152L17.402 18.0234L17.3598 18.0317L17.3176 18.04L17.2755 18.0566L17.2333 18.0648L17.1911 18.0731H17.149L17.1068 18.0814L17.0731 18.0897L17.0309 18.0979L16.9972 18.1062L16.955 18.1145L16.9213 18.1228L16.8876 18.131L16.8538 18.1393L16.8201 18.1476L16.7864 18.1559L16.7526 18.1641L16.7189 18.1724L16.6852 18.1807L16.6514 18.189L16.6261 18.1972L16.5924 18.2055L16.5587 18.2138L16.5334 18.2221L16.4997 18.2303L16.4744 18.2386L16.4491 18.2469L16.4153 18.2552L16.39 18.2717L16.3647 18.28L16.3394 18.2883L16.3141 18.3048L16.2888 18.3131L16.2635 18.3214L16.2382 18.3379L16.2129 18.3462L16.1876 18.3628L16.1623 18.3793L16.137 18.3876L16.1117 18.4041L16.0949 18.4207L16.0696 18.4372L16.0443 18.4455L16.019 18.4621L16.0021 18.4786L15.9768 18.4952L15.9515 18.52L15.9262 18.5366L15.9093 18.5531L15.884 18.5697L15.8588 18.5945L15.8419 18.611L15.8166 18.6359L15.7913 18.6524L15.7744 18.6772L15.7491 18.7021L15.7238 18.7186L15.707 18.7434L15.6817 18.7683L15.6564 18.7931L15.6311 18.8179L15.6058 18.8428L15.5805 18.8676L15.5636 18.8924L15.5383 18.9255L15.513 18.9503L15.4877 18.9752L15.454 19.0083L15.4287 19.0331L15.4034 19.0662L15.3781 19.0993L15.3528 19.1241L15.319 19.1572L15.2937 19.1903L15.26 19.2234L15.2347 19.2566L15.201 19.2897L15.1757 19.3228L15.142 19.3559L15.1082 19.389L15.0745 19.4221L15.0408 19.4552L15.007 19.4883L14.9733 19.5297L14.9396 19.5628L14.9058 19.5959L14.8637 19.6372L14.8299 19.6703L14.7878 19.7117L14.7456 19.7448L14.7119 19.7862L14.6697 19.8193L14.6275 19.8607L14.5854 19.9021L14.5348 19.9352L14.4926 19.9766L14.4505 20.0097L14.3999 20.051L14.3577 20.0924L14.3071 20.1255L14.2565 20.1669L14.2059 20.2083L14.1553 20.2414L14.1047 20.2828L14.0457 20.3241L13.9951 20.3572L13.9361 20.3986L13.877 20.44L13.8264 20.4731L13.7674 20.5145L13.7084 20.5476L13.6409 20.589L13.5819 20.6221L13.5228 20.6634L13.4554 20.6966L13.3879 20.7379L13.3205 20.771L13.253 20.8041L13.1855 20.8455L13.1181 20.8786L13.0506 20.9117L12.9747 20.9448L12.8988 20.9779L12.8313 21.011L12.7554 21.0441L12.6796 21.0772L12.6037 21.1021L12.5193 21.1352L12.4434 21.1683L12.3591 21.1931L12.2832 21.2179L12.1989 21.251L12.1145 21.2759L12.0302 21.3007L11.9459 21.3255L11.8531 21.3503L11.7688 21.3752L11.6845 21.3917L11.5917 21.4166L11.4989 21.4331L11.4062 21.4579L11.3134 21.4745L11.2207 21.491L11.1279 21.5076L11.0351 21.5241L10.9339 21.5324L10.8412 21.549L10.74 21.5572L10.6388 21.5655L10.5376 21.5821H10.4448L10.3436 21.5903L10.234 21.5986H10.1328L10.0316 21.6069H9.93043H9.8208L9.71961 21.5986H9.60998L9.50035 21.5903H9.39072L9.28953 21.5821L9.1799 21.5738L9.07028 21.5572L8.96065 21.549L8.85102 21.5324L8.74139 21.5159L8.62333 21.4993L8.5137 21.4828L8.40408 21.4662L8.29445 21.4414L8.17639 21.4166L8.06676 21.3917L7.95713 21.3669L7.83907 21.3338L7.72945 21.309L7.61139 21.2759L7.50176 21.2428L7.3837 21.2014L7.27407 21.1683L7.16444 21.1269L7.04638 21.0855L6.93675 21.0441L6.81869 21.0028L6.70907 20.9531L6.59101 20.9034L6.48138 20.8538L6.37175 20.8041L6.25369 20.7462L6.14406 20.6966L6.03443 20.6386L5.91637 20.5807L5.80675 20.5145L5.69712 20.4566L5.58749 20.3903L5.47786 20.3241L5.36824 20.2579L5.25861 20.1834L5.14898 20.1172L5.04779 20.0428L4.93816 19.9683L4.83696 19.8855L4.72734 19.811L4.62614 19.7283L4.51651 19.6455L4.41532 19.5628L4.31413 19.4717L4.21293 19.389L4.11174 19.2979L4.01897 19.2069L3.91778 19.1076L3.82502 19.0166L3.72382 18.9172L3.63106 18.8179L3.5383 18.7186L3.44554 18.6193L3.35278 18.52L3.26845 18.4124L3.17569 18.3048L3.09136 18.1972L3.00703 18.0897L2.9227 17.9738L2.83837 17.8662L2.75404 17.7503L2.67814 17.6345L2.59382 17.5186L2.51792 17.4028L2.44202 17.2786L2.37456 17.1545L2.29866 17.0386L2.2312 16.9145L2.16374 16.7821L2.09628 16.6579L2.02881 16.5338L1.96135 16.4014L1.90232 16.269L1.84329 16.1366L1.78426 16.0041L1.73366 15.8717L1.67463 15.7393L1.62403 15.5986L1.57344 15.4662L1.52284 15.3255L1.48067 15.1848L1.43851 15.0441L1.39635 14.9034L1.35418 14.7628L1.31202 14.6221L1.27829 14.4814L1.24455 14.3324L1.21082 14.1917L1.18552 14.0428L1.16022 13.8938L1.13493 13.7531L1.10963 13.6041L1.08433 13.4552L1.06746 13.3062L1.0506 13.1572L1.04216 13.0083L1.0253 12.8593L1.01687 12.7103L1.00843 12.5531V12.4041L1 12.2552V12.1062V11.949L1.00843 11.8L1.01687 11.651L1.0253 11.4938L1.03373 11.3448L1.0506 11.1959L1.05903 11.0386L1.08433 10.8897L1.10119 10.7407L1.12649 10.5834L1.15179 10.4345L1.17709 10.2855L1.20239 10.1366L1.23612 9.97931L1.26985 9.83034L1.31202 9.68138L1.34575 9.53241L1.38791 9.38345L1.43008 9.23448L1.48067 9.09379L1.52284 8.94483L1.57344 8.79586L1.62403 8.65517L1.68306 8.50621L1.74209 8.36552L1.80112 8.21655L1.86015 8.07586L1.91918 7.93517L1.98665 7.79448L2.05411 7.65379L2.13001 7.5131L2.19747 7.38069L2.27337 7.24L2.34926 7.10759L2.42516 6.97517L2.50949 6.84276L2.58538 6.71034L2.66971 6.57793L2.76247 6.44552L2.8468 6.32138L2.93956 6.18897L3.03233 6.06483L3.12509 5.94069L3.21785 5.81655L3.31904 5.70069L3.42024 5.57655L3.52143 5.46069L3.62263 5.34483L3.72382 5.22897L3.83345 5.1131L3.94308 5.00552L4.05271 4.88966L4.16233 4.78207L4.27196 4.67448L4.39002 4.57517L4.49965 4.46759L4.61771 4.36828L4.73577 4.26897L4.86226 4.16966L4.98032 4.07034L5.10682 3.97931L5.22488 3.88828L5.35137 3.79724L5.47786 3.70621L5.60436 3.62345L5.73928 3.54069L5.86578 3.45793L6.0007 3.37517L6.1272 3.29241L6.26212 3.21793L6.39705 3.14345L6.53198 3.06897L6.6669 3.00276L6.81026 2.93655L6.94519 2.87034L7.08011 2.80414L7.22347 2.73793L7.3584 2.68L7.50176 2.62207L7.64512 2.57241L7.78848 2.51448L7.93184 2.46483L8.07519 2.41517L8.21855 2.36552L8.36191 2.32414L8.50527 2.28276L8.64863 2.24138L8.79199 2.2L8.93535 2.1669L9.08714 2.13379L9.2305 2.10069L9.37386 2.07586L9.52565 2.04276L9.66901 2.01793L9.81237 2.00138L9.96416 1.97655L10.1075 1.96L10.2509 1.94345L10.3942 1.9269L10.546 1.91862L10.6894 1.90207H10.8327L10.9845 1.89379L11.1279 1.88552H11.2713H11.4146L11.558 1.89379H11.7013L11.8447 1.90207L11.9881 1.91034L12.1314 1.91862L12.2663 1.93517L12.4097 1.95172L12.5531 1.96828L12.688 1.98483L12.8313 2.00966L12.9663 2.02621L13.1012 2.05103L13.2361 2.08414L13.371 2.10897L13.506 2.14207L13.6409 2.1669L13.7758 2.20828L13.9108 2.24138L14.0372 2.27448L14.1637 2.31586L14.2987 2.35724L14.4252 2.39862L14.5517 2.44L14.6781 2.48966L14.7962 2.53931L14.9227 2.58897L15.0408 2.63862L15.1673 2.68828L15.2853 2.74621L15.4034 2.79586L15.5214 2.85379L15.6311 2.91172L15.7491 2.96966L15.8588 3.02759L15.9768 3.09379L16.0864 3.16L16.1961 3.21793L16.2973 3.28414L16.4069 3.35034L16.5081 3.42483L16.6093 3.49103L16.7105 3.55724L16.8117 3.63172L16.9129 3.70621L17.0056 3.78069L17.1068 3.85517L17.1996 3.92966L17.2923 4.00414L17.3851 4.07862L17.4694 4.16138L17.5622 4.23586L17.6465 4.31862L17.7309 4.40138L17.8152 4.48414L17.8911 4.5669L17.9754 4.64966L18.0513 4.73241L18.1272 4.81517L18.2031 4.89793L18.2706 4.98069L18.3465 5.07172L18.4139 5.15448L18.4814 5.23724L18.5488 5.32828L18.6163 5.41103L18.6753 5.50207L18.7428 5.5931L18.8018 5.67586L18.8609 5.7669L18.9199 5.85793L18.9705 5.94069L19.0295 6.03172L19.0801 6.12276L19.1307 6.21379L19.1813 6.30483L19.2235 6.38759L19.2741 6.47862L19.3162 6.56966L19.3584 6.66069L19.4006 6.74345L19.4427 6.83448L19.4765 6.92552L19.5186 7.01655L19.5524 7.09931L19.5861 7.19035L19.6198 7.28138L19.6451 7.36414L19.6788 7.45517L19.7041 7.54621L19.7294 7.62897L19.7632 7.72L19.78 7.80276L19.8053 7.88552L19.8306 7.97655L19.8475 8.05931L19.8644 8.14207L19.8897 8.22483L19.9065 8.31586L19.915 8.39862L19.9318 8.48138L19.9487 8.55586L19.9571 8.63862L19.9656 8.72138L19.9824 8.80414L19.9909 8.87862L19.9993 8.96138V9.03586L20.0077 9.11862L20.0162 9.1931V9.26759V9.34207L20.0246 9.41655V9.49103V9.56552V9.64L20.0162 9.71448V9.78069V9.85517L20.0077 9.92138V9.98759L19.9993 10.0621V10.1283L19.9909 10.1945L19.9824 10.2524L19.974 10.3186L19.9656 10.3848L19.9571 10.451L19.9487 10.509L19.9403 10.5669L19.9318 10.6331L19.915 10.691L19.9065 10.749L19.8981 10.8069L19.8812 10.8648L19.8728 10.9228L19.8644 10.9724L19.8475 11.0303L19.8391 11.08L19.8222 11.1379L19.8138 11.1876L19.7969 11.2372L19.78 11.2869L19.7716 11.3366L19.7547 11.3862L19.7379 11.4359L19.7294 11.4772L19.7126 11.5269L19.6957 11.5766L19.6873 11.6179L19.6704 11.6593L19.6536 11.709L19.6451 11.7503L19.6283 11.7917L19.6198 11.8331L19.603 11.8745L19.5861 11.9076L19.5777 11.949L19.5608 11.9903L19.5524 12.0234L19.5355 12.0648L19.5271 12.0979L19.5102 12.1393L19.5018 12.1724L19.4933 12.2055L19.4765 12.2386L19.468 12.2717L19.4596 12.3048L19.4427 12.3379L19.4343 12.371L19.4259 12.4041L19.4174 12.4372L19.409 12.4703L19.4006 12.5034L19.3921 12.5283L19.3837 12.5614L19.3753 12.5862L19.3668 12.6193V12.6524L19.3584 12.6772L19.35 12.7103V12.7352L19.3415 12.76V12.7931L19.3331 12.8179V12.8428V12.8759L19.3247 12.9007V12.9255V12.9586V12.9834" stroke="#7B61C1" stroke-width="0.7"/>
</svg>
