<svg width="72" height="20" viewBox="0 0 72 20" fill="none" xmlns="http://www.w3.org/2000/svg">
<g clip-path="url(#clip0_515_1620)">
<path d="M9.37665 6.41949C9.53847 6.18554 9.71561 6.15579 9.85932 6.15579C10.003 6.15579 10.2424 6.18554 10.4043 6.41949C11.6799 8.13794 13.7853 11.5612 15.3385 14.0863C16.3513 15.7331 17.1292 16.9978 17.2888 17.1588C17.888 17.763 18.7097 17.3865 19.1872 16.7011C19.6572 16.0263 19.7877 15.5525 19.7877 15.0471C19.7877 14.7028 12.9776 2.27986 12.2917 1.24581C11.6322 0.25122 11.4173 0 10.2885 0H9.44372C8.31821 0 8.15557 0.25122 7.49595 1.24581C6.81017 2.27986 0 14.7028 0 15.0471C0 15.5525 0.130497 16.0263 0.600572 16.7011C1.07804 17.3865 1.89973 17.763 2.49885 17.1588C2.65847 16.9978 3.43641 15.7331 4.44926 14.0863C6.00237 11.5612 8.1011 8.13794 9.37665 6.41949Z" fill="#000020"/>
<path d="M54.5402 5.43379C57.345 5.43379 59.5756 7.91751 59.5756 10.9895C59.5756 14.0615 57.345 16.567 54.5402 16.567C53.0384 16.567 51.8678 15.957 51.117 14.8458V19.8787H48.0029V5.65166H51.117V7.15498C51.8678 6.04383 53.0384 5.43379 54.5402 5.43379ZM66.3682 5.43379C69.5482 5.43379 71.9999 7.83035 71.9999 11.0113C71.9999 14.1922 69.5482 16.567 66.3682 16.567C63.1657 16.567 60.7363 14.1922 60.7363 11.0113C60.7363 7.83035 63.1657 5.43379 66.3682 5.43379ZM33.9963 1.09814V4.19192H27.7903V6.93712H33.3117V10.0309H27.7903V13.2554H33.9963V16.3492H24.5217V1.09814H33.9963ZM39.0633 5.65166L40.8523 8.17897L42.6632 5.65166H46.3736L42.7075 10.8152L46.6386 16.3492H42.8841L40.8302 13.4515L38.7763 16.3492H35.066L38.975 10.837L35.3088 5.65166H39.0633ZM53.8335 8.35329C52.3095 8.35329 51.117 9.50799 51.117 10.9895C51.117 12.4928 52.3095 13.6258 53.8335 13.6258C55.3353 13.6258 56.5499 12.471 56.5499 10.9895C56.5499 9.52979 55.3353 8.35329 53.8335 8.35329ZM66.3682 8.37503C64.8881 8.37503 63.7842 9.48618 63.7842 11.0113C63.7842 12.4928 64.8881 13.6258 66.3682 13.6258C67.8255 13.6258 68.9523 12.4928 68.9523 11.0113C68.9523 9.48618 67.8255 8.37503 66.3682 8.37503Z" fill="#000020"/>
</g>
<defs>
<clipPath id="clip0_515_1620">
<rect width="72" height="20" fill="white"/>
</clipPath>
</defs>
</svg>
