<svg width="120" height="40" viewBox="0 0 120 40" fill="none" xmlns="http://www.w3.org/2000/svg">
<path d="M110.135 0.00013H9.53468C9.16798 0.00013 8.80568 0.00013 8.43995 0.00213C8.1338 0.00413 7.83009 0.00994 7.521 0.01483C6.84951 0.0227318 6.17961 0.0818063 5.5171 0.19154C4.85552 0.303663 4.21467 0.515046 3.61622 0.81854C3.0185 1.1246 2.47235 1.5223 1.99757 1.9972C1.5203 2.47077 1.12246 3.01815 0.81935 3.61829C0.5154 4.21724 0.304641 4.85907 0.19435 5.52161C0.0830109 6.18332 0.0230984 6.85265 0.01515 7.52361C0.00587 7.83021 0.00489 8.13783 0 8.44447V31.5587C0.00489 31.8692 0.00587 32.17 0.01515 32.4806C0.0231008 33.1516 0.0830134 33.8209 0.19435 34.4825C0.304336 35.1455 0.515108 35.7877 0.81935 36.3868C1.12233 36.985 1.52022 37.5302 1.99757 38.0011C2.47054 38.4781 3.01705 38.8761 3.61622 39.1798C4.21467 39.4841 4.85545 39.6968 5.5171 39.8106C6.17972 39.9195 6.84956 39.9786 7.521 39.9874C7.83009 39.9942 8.1338 39.9981 8.43995 39.9981C8.80567 40.0001 9.168 40.0001 9.53468 40.0001H110.135C110.494 40.0001 110.859 40.0001 111.219 39.9981C111.523 39.9981 111.836 39.9942 112.141 39.9874C112.811 39.9791 113.479 39.92 114.141 39.8106C114.804 39.696 115.448 39.4834 116.049 39.1798C116.647 38.8759 117.193 38.478 117.666 38.0011C118.142 37.5284 118.541 36.9836 118.848 36.3868C119.15 35.7872 119.358 35.1451 119.467 34.4825C119.578 33.8208 119.64 33.1516 119.652 32.4806C119.656 32.17 119.656 31.8692 119.656 31.5587C119.664 31.1954 119.664 30.8341 119.664 30.4649V9.53626C119.664 9.17005 119.664 8.80677 119.656 8.44447C119.656 8.13783 119.656 7.83021 119.652 7.52357C119.64 6.85255 119.578 6.18337 119.467 5.52157C119.358 4.85941 119.149 4.21763 118.848 3.61825C118.23 2.41533 117.252 1.43616 116.049 0.81845C115.448 0.515697 114.804 0.30437 114.141 0.19145C113.48 0.0812328 112.811 0.0221378 112.141 0.01469C111.836 0.00981 111.523 0.00395 111.219 0.002C110.859 0 110.494 0 110.135 0V0.00013Z" fill="#A6A6A6"/>
<path d="M8.44487 39.1251C8.14019 39.1251 7.84287 39.1212 7.54058 39.1144C6.91436 39.1063 6.2896 39.0517 5.67144 38.9513C5.09503 38.852 4.53664 38.6674 4.0147 38.4034C3.49754 38.1416 3.02585 37.7984 2.6177 37.3868C2.20364 36.9801 1.85891 36.5084 1.59719 35.9903C1.33258 35.4689 1.14945 34.91 1.05419 34.3331C0.951311 33.7132 0.895651 33.0864 0.887687 32.4581C0.881347 32.2472 0.873047 31.545 0.873047 31.545V8.44446C0.873047 8.44446 0.881887 7.75305 0.887737 7.54992C0.895363 6.9226 0.950699 6.29678 1.05327 5.67785C1.14871 5.09937 1.33197 4.53887 1.59673 4.01575C1.85749 3.49807 2.2003 3.02598 2.61187 2.6178C3.02297 2.20574 3.49617 1.86073 4.01421 1.59533C4.53495 1.33222 5.09228 1.14885 5.66753 1.05139C6.28772 0.949958 6.91465 0.895118 7.54304 0.887332L8.44536 0.875122H111.214L112.127 0.887822C112.75 0.895221 113.371 0.949572 113.985 1.05041C114.566 1.1491 115.13 1.33374 115.656 1.59826C116.694 2.13311 117.539 2.97929 118.071 4.01819C118.332 4.5377 118.512 5.09363 118.607 5.66711C118.71 6.29111 118.768 6.92186 118.78 7.55432C118.783 7.83752 118.783 8.14172 118.783 8.44446C118.791 8.81946 118.791 9.17639 118.791 9.53625V30.4649C118.791 30.8282 118.791 31.1827 118.783 31.5401C118.783 31.8653 118.783 32.1632 118.779 32.4698C118.768 33.091 118.711 33.7105 118.608 34.3233C118.515 34.9044 118.333 35.4676 118.068 35.9933C117.805 36.5057 117.462 36.9734 117.053 37.379C116.644 37.7928 116.172 38.1381 115.653 38.4015C115.128 38.6675 114.566 38.8529 113.985 38.9513C113.367 39.0523 112.742 39.1068 112.116 39.1144C111.823 39.1212 111.517 39.1251 111.219 39.1251L110.135 39.1271L8.44487 39.1251Z" fill="black"/>
<path d="M24.769 20.3008C24.7797 19.4662 25.0014 18.6478 25.4135 17.9218C25.8255 17.1959 26.4145 16.5859 27.1256 16.1488C26.6738 15.5036 26.0779 14.9727 25.385 14.5981C24.6922 14.2236 23.9216 14.0157 23.1344 13.9911C21.4552 13.8148 19.8272 14.9959 18.9715 14.9959C18.0992 14.9959 16.7817 14.0086 15.363 14.0378C14.4453 14.0674 13.551 14.3343 12.7671 14.8123C11.9832 15.2904 11.3365 15.9633 10.8901 16.7656C8.95607 20.1141 10.3987 25.0351 12.2513 27.7417C13.1782 29.0671 14.2615 30.5475 15.6789 30.495C17.066 30.4375 17.584 29.6105 19.2583 29.6105C20.9171 29.6105 21.4031 30.495 22.8493 30.4616C24.3377 30.4375 25.2754 29.1304 26.1698 27.7925C26.8358 26.8481 27.3483 25.8044 27.6882 24.7C26.8235 24.3343 26.0856 23.7221 25.5665 22.9398C25.0474 22.1575 24.77 21.2397 24.769 20.3008Z" fill="white"/>
<path d="M22.0373 12.2111C22.8489 11.2369 23.2487 9.98469 23.1518 8.72046C21.912 8.85068 20.7668 9.44324 19.9443 10.3801C19.5421 10.8377 19.2341 11.3702 19.0379 11.9469C18.8416 12.5237 18.761 13.1335 18.8006 13.7415C19.4207 13.7478 20.0342 13.6134 20.5949 13.3483C21.1555 13.0833 21.6487 12.6944 22.0373 12.2111Z" fill="white"/>
<path d="M42.3025 27.1398H37.5691L36.4324 30.4962H34.4275L38.9109 18.0782H40.9939L45.4773 30.4962H43.4382L42.3025 27.1398ZM38.0593 25.591H41.8113L39.9617 20.1437H39.91L38.0593 25.591Z" fill="white"/>
<path d="M55.1599 25.9699C55.1599 28.7834 53.6541 30.591 51.3816 30.591C50.806 30.6211 50.2335 30.4885 49.7297 30.2084C49.2259 29.9283 48.8112 29.5119 48.533 29.007H48.49V33.4914H46.6316V21.4426H48.4305V22.9485H48.4646C48.7556 22.446 49.1773 22.0318 49.6849 21.7499C50.1926 21.4681 50.7671 21.3291 51.3474 21.3479C53.6453 21.3479 55.1599 23.1643 55.1599 25.9699ZM53.2498 25.9699C53.2498 24.1369 52.3025 22.9319 50.8572 22.9319C49.4373 22.9319 48.4822 24.1623 48.4822 25.9699C48.4822 27.7942 49.4373 29.0158 50.8572 29.0158C52.3025 29.0158 53.2498 27.8196 53.2498 25.9699Z" fill="white"/>
<path d="M65.1248 25.9699C65.1248 28.7834 63.6189 30.591 61.3465 30.591C60.7708 30.6211 60.1983 30.4885 59.6945 30.2084C59.1907 29.9283 58.776 29.5119 58.4978 29.007H58.4548V33.4914H56.5964V21.4426H58.3953V22.9484H58.4294C58.7204 22.446 59.1421 22.0318 59.6498 21.7499C60.1574 21.4681 60.7319 21.3291 61.3123 21.3479C63.6101 21.3479 65.1248 23.1643 65.1248 25.9699ZM63.2146 25.9699C63.2146 24.1369 62.2674 22.9318 60.822 22.9318C59.4021 22.9318 58.447 24.1623 58.447 25.9699C58.447 27.7942 59.4021 29.0158 60.822 29.0158C62.2674 29.0158 63.2146 27.8195 63.2146 25.9699H63.2146Z" fill="white"/>
<path d="M71.7107 27.0363C71.8484 28.2678 73.0447 29.0763 74.6795 29.0763C76.2459 29.0763 77.3728 28.2677 77.3728 27.1574C77.3728 26.1935 76.6931 25.6164 75.0838 25.2208L73.4744 24.8331C71.1941 24.2824 70.1355 23.2159 70.1355 21.4855C70.1355 19.3429 72.0027 17.8712 74.6541 17.8712C77.2781 17.8712 79.0769 19.3429 79.1375 21.4855H77.2615C77.1492 20.2462 76.1248 19.4982 74.6277 19.4982C73.1306 19.4982 72.1062 20.255 72.1062 21.3566C72.1062 22.2345 72.7605 22.7511 74.3611 23.1466L75.7292 23.4825C78.2771 24.0851 79.3357 25.1085 79.3357 26.9249C79.3357 29.2481 77.4851 30.7032 74.5417 30.7032C71.7878 30.7032 69.9285 29.2823 69.8083 27.0362L71.7107 27.0363Z" fill="white"/>
<path d="M83.3464 19.2999V21.4425H85.0681V22.9142H83.3464V27.9054C83.3464 28.6808 83.6912 29.0421 84.448 29.0421C84.6524 29.0386 84.8564 29.0242 85.0593 28.9991V30.462C84.719 30.5256 84.3732 30.5544 84.0271 30.5479C82.1941 30.5479 81.4792 29.8595 81.4792 28.1036V22.9142H80.1628V21.4425H81.4792V19.2999H83.3464Z" fill="white"/>
<path d="M86.0652 25.9698C86.0652 23.1212 87.7429 21.3312 90.3591 21.3312C92.9841 21.3312 94.6541 23.1212 94.6541 25.9698C94.6541 28.8263 92.9929 30.6085 90.3591 30.6085C87.7263 30.6085 86.0652 28.8263 86.0652 25.9698ZM92.7605 25.9698C92.7605 24.0157 91.865 22.8624 90.3591 22.8624C88.8533 22.8624 87.9587 24.0245 87.9587 25.9698C87.9587 27.9318 88.8533 29.0763 90.3591 29.0763C91.865 29.0763 92.7605 27.9318 92.7605 25.9698H92.7605Z" fill="white"/>
<path d="M96.1863 21.4425H97.9587V22.9835H98.0017C98.1217 22.5022 98.4036 22.0769 98.8002 21.779C99.1968 21.4811 99.6838 21.3288 100.179 21.3478C100.394 21.347 100.607 21.3703 100.816 21.4171V23.1554C100.546 23.0728 100.264 23.0348 99.9812 23.0431C99.7112 23.0321 99.4421 23.0797 99.1922 23.1826C98.9424 23.2855 98.7178 23.4412 98.5338 23.6391C98.3498 23.837 98.2108 24.0724 98.1264 24.3291C98.042 24.5857 98.0141 24.8576 98.0447 25.1261V30.4962H96.1863L96.1863 21.4425Z" fill="white"/>
<path d="M109.385 27.837C109.135 29.4806 107.534 30.6085 105.486 30.6085C102.852 30.6085 101.218 28.8439 101.218 26.0128C101.218 23.173 102.861 21.3312 105.408 21.3312C107.913 21.3312 109.488 23.0519 109.488 25.797V26.4337H103.094V26.546C103.064 26.8792 103.106 27.2149 103.216 27.5307C103.326 27.8466 103.502 28.1353 103.733 28.3779C103.963 28.6204 104.242 28.8112 104.552 28.9375C104.862 29.0638 105.195 29.1228 105.529 29.1105C105.968 29.1516 106.409 29.0499 106.786 28.8205C107.162 28.591 107.455 28.2461 107.62 27.837L109.385 27.837ZM103.102 25.1349H107.629C107.645 24.8353 107.6 24.5355 107.495 24.2543C107.391 23.9731 107.229 23.7165 107.02 23.5008C106.812 23.285 106.561 23.1147 106.284 23.0004C106.006 22.8862 105.708 22.8306 105.408 22.837C105.105 22.8352 104.805 22.8934 104.525 23.0081C104.245 23.1229 103.991 23.2919 103.776 23.5056C103.562 23.7192 103.392 23.9732 103.276 24.2528C103.161 24.5325 103.102 24.8323 103.102 25.1349V25.1349Z" fill="white"/>
<path d="M35.4277 11.7164C35.4277 9.78136 36.457 8.58605 38.1152 8.58605C38.7129 8.55645 39.2998 8.75266 39.7595 9.13574C40.2192 9.51881 40.518 10.0607 40.5967 10.6539H39.6738C39.5964 10.3024 39.3979 9.98924 39.113 9.76923C38.8281 9.54922 38.4749 9.43633 38.1152 9.45031C37.0439 9.45031 36.374 10.3229 36.374 11.7164C36.374 13.1061 37.0439 13.9781 38.1191 13.9781C38.4657 14.0041 38.8104 13.9085 39.0942 13.7078C39.3779 13.5072 39.5829 13.2139 39.6738 12.8785H40.5967C40.5067 13.4576 40.2016 13.9814 39.7423 14.3454C39.2831 14.7095 38.7035 14.8869 38.1191 14.8424C36.461 14.8424 35.4277 13.6476 35.4277 11.7164Z" fill="white"/>
<path d="M41.6104 12.4444C41.5821 12.1485 41.6159 11.8499 41.7098 11.5679C41.8036 11.2858 41.9554 11.0264 42.1553 10.8065C42.3553 10.5865 42.599 10.4107 42.8708 10.2904C43.1427 10.1702 43.4367 10.108 43.7339 10.108C44.0312 10.108 44.3252 10.1702 44.597 10.2904C44.8689 10.4107 45.1126 10.5865 45.3125 10.8065C45.5125 11.0264 45.6642 11.2858 45.7581 11.5679C45.8519 11.8499 45.8858 12.1485 45.8575 12.4444C45.8863 12.7406 45.8529 13.0396 45.7593 13.3221C45.6657 13.6047 45.514 13.8645 45.314 14.0849C45.114 14.3053 44.8701 14.4814 44.598 14.602C44.3259 14.7225 44.0315 14.7848 43.7339 14.7848C43.4363 14.7848 43.142 14.7225 42.8698 14.602C42.5977 14.4814 42.3538 14.3053 42.1538 14.0849C41.9538 13.8645 41.8022 13.6047 41.7086 13.3221C41.615 13.0396 41.5815 12.7406 41.6104 12.4444ZM44.9434 12.4444C44.9434 11.4683 44.5049 10.8975 43.7354 10.8975C42.9629 10.8975 42.5284 11.4683 42.5284 12.4444C42.5284 13.4283 42.963 13.9947 43.7354 13.9947C44.5049 13.9947 44.9434 13.4244 44.9434 12.4444H44.9434Z" fill="white"/>
<path d="M47.0498 10.195H47.9053V10.9103H47.9717C48.0843 10.6534 48.2743 10.438 48.5152 10.2942C48.7561 10.1504 49.0358 10.0853 49.3154 10.1081C49.5345 10.0916 49.7545 10.1246 49.9591 10.2047C50.1637 10.2848 50.3477 10.4099 50.4974 10.5708C50.647 10.7316 50.7586 10.9241 50.8238 11.1339C50.889 11.3437 50.9062 11.5655 50.874 11.7829V14.6979H49.9854V12.006C49.9854 11.2824 49.6709 10.9225 49.0137 10.9225C48.8649 10.9156 48.7164 10.9409 48.5784 10.9968C48.4403 11.0526 48.316 11.1376 48.2138 11.246C48.1117 11.3544 48.0342 11.4836 47.9867 11.6247C47.9392 11.7658 47.9227 11.9156 47.9385 12.0636V14.6979H47.0498V10.195Z" fill="white"/>
<path d="M53.8945 10.108C54.9072 10.108 55.5693 10.5792 55.6562 11.3732H54.8037C54.7217 11.0426 54.3984 10.8317 53.8945 10.8317C53.3984 10.8317 53.0215 11.067 53.0215 11.4186C53.0215 11.6876 53.2491 11.8571 53.7373 11.9689L54.4853 12.1422C55.3418 12.3409 55.7432 12.7091 55.7432 13.3707C55.7432 14.2184 54.9532 14.7848 53.8779 14.7848C52.8066 14.7848 52.1084 14.3009 52.0293 13.5031H52.919C52.9956 13.6929 53.1339 13.8516 53.3115 13.9535C53.4891 14.0554 53.6958 14.0947 53.8985 14.0651C54.4522 14.0651 54.8457 13.8171 54.8457 13.4571C54.8457 13.1886 54.6348 13.0148 54.1836 12.9073L53.3985 12.7252C52.542 12.5226 52.1455 12.1383 52.1455 11.4684C52.1455 10.67 52.877 10.108 53.8945 10.108Z" fill="white"/>
<path d="M56.8652 9.44201L57.9033 8.01965H58.9453L57.7832 9.44201H56.8652ZM56.957 10.1949H57.8418V14.6979H56.957V10.1949Z" fill="white"/>
<path d="M59.2256 15.1485H60.1348C60.21 15.4752 60.5859 15.6861 61.1856 15.6861C61.9258 15.6861 62.3643 15.3346 62.3643 14.7393V13.8751H62.2979C62.1585 14.117 61.9549 14.3157 61.7097 14.4492C61.4644 14.5827 61.187 14.6457 60.9082 14.6314C59.7588 14.6314 59.0479 13.7428 59.0479 12.3946C59.0479 11.0216 59.7666 10.1202 60.917 10.1202C61.2028 10.1103 61.4859 10.179 61.7353 10.3191C61.9846 10.4591 62.1907 10.6649 62.3311 10.9142H62.4014V10.1949H63.2529V14.7349C63.2529 15.7647 62.4463 16.418 61.1728 16.418C60.0479 16.4181 59.3203 15.9137 59.2256 15.1485ZM62.3809 12.3902C62.3809 11.4932 61.917 10.9185 61.1602 10.9185C60.3955 10.9185 59.9658 11.4933 59.9658 12.3902C59.9658 13.2877 60.3955 13.8624 61.1602 13.8624C61.9219 13.8624 62.3809 13.2921 62.3809 12.3902Z" fill="white"/>
<path d="M68.4653 14.6979H67.6088V13.9825H67.5385C67.4247 14.2421 67.232 14.4593 66.9878 14.6033C66.7437 14.7473 66.4604 14.8108 66.1781 14.7848C65.9603 14.8003 65.7418 14.7667 65.5387 14.6867C65.3355 14.6067 65.1529 14.4822 65.0041 14.3224C64.8553 14.1626 64.7442 13.9715 64.6789 13.7631C64.6137 13.5548 64.5959 13.3344 64.6269 13.1183V10.1949H65.517V12.8868C65.517 13.6144 65.81 13.962 66.4633 13.962C66.6148 13.9764 66.7676 13.9568 66.9105 13.9046C67.0534 13.8524 67.1829 13.769 67.2895 13.6604C67.3961 13.5518 67.477 13.4208 67.5265 13.2769C67.576 13.133 67.5928 12.9799 67.5756 12.8287V10.1949H68.4653V14.6979Z" fill="white"/>
<path d="M73.6889 13.482C73.5681 13.8936 73.3065 14.2495 72.9499 14.4877C72.5932 14.7258 72.1641 14.831 71.7377 14.7847C71.441 14.7926 71.1462 14.7358 70.8737 14.6182C70.6012 14.5007 70.3576 14.3253 70.1597 14.1041C69.9617 13.883 69.8143 13.6214 69.7276 13.3376C69.6409 13.0538 69.6171 12.7545 69.6576 12.4605C69.6181 12.1656 69.6424 11.8657 69.7289 11.581C69.8154 11.2964 69.9621 11.0336 70.1589 10.8105C70.3558 10.5874 70.5983 10.4093 70.87 10.2881C71.1417 10.1669 71.4363 10.1054 71.7338 10.108C72.9867 10.108 73.7426 10.964 73.7426 12.378V12.6881H70.5629V12.7379C70.549 12.9031 70.5697 13.0695 70.6239 13.2262C70.678 13.383 70.7643 13.5267 70.8772 13.6481C70.9901 13.7696 71.1271 13.8661 71.2795 13.9315C71.4319 13.9969 71.5963 14.0297 71.7621 14.0279C71.9747 14.0534 72.19 14.0151 72.3808 13.9179C72.5716 13.8207 72.7291 13.669 72.8334 13.482L73.6889 13.482ZM70.5629 12.0308H72.8373C72.8485 11.8797 72.828 11.7279 72.777 11.5852C72.726 11.4425 72.6458 11.312 72.5414 11.2021C72.437 11.0923 72.3108 11.0055 72.1709 10.9473C72.0309 10.8891 71.8804 10.8609 71.7289 10.8643C71.5752 10.8624 71.4227 10.8913 71.2803 10.9492C71.1379 11.0072 71.0086 11.093 70.8999 11.2017C70.7912 11.3104 70.7054 11.4398 70.6476 11.5822C70.5897 11.7246 70.5609 11.8771 70.5629 12.0308Z" fill="white"/>
<path d="M74.9771 8.43713H75.8657V14.6979H74.9771V8.43713Z" fill="white"/>
<path d="M77.1011 12.4444C77.0728 12.1485 77.1067 11.8499 77.2005 11.5679C77.2943 11.2858 77.4461 11.0264 77.646 10.8065C77.846 10.5865 78.0897 10.4107 78.3615 10.2904C78.6334 10.1702 78.9274 10.108 79.2246 10.108C79.5219 10.108 79.8159 10.1702 80.0878 10.2904C80.3596 10.4107 80.6033 10.5865 80.8033 10.8065C81.0032 11.0264 81.155 11.2858 81.2488 11.5679C81.3426 11.8499 81.3765 12.1485 81.3482 12.4444C81.377 12.7406 81.3436 13.0396 81.25 13.3221C81.1564 13.6047 81.0047 13.8645 80.8047 14.0849C80.6047 14.3053 80.3609 14.4814 80.0887 14.602C79.8166 14.7225 79.5223 14.7848 79.2246 14.7848C78.927 14.7848 78.6327 14.7225 78.3606 14.602C78.0884 14.4814 77.8445 14.3053 77.6446 14.0849C77.4446 13.8645 77.2929 13.6047 77.1993 13.3221C77.1057 13.0396 77.0723 12.7406 77.1011 12.4444ZM80.4341 12.4444C80.4341 11.4683 79.9956 10.8975 79.2261 10.8975C78.4536 10.8975 78.0191 11.4683 78.0191 12.4444C78.0191 13.4283 78.4537 13.9947 79.2261 13.9947C79.9957 13.9947 80.4341 13.4244 80.4341 12.4444H80.4341Z" fill="white"/>
<path d="M88.7914 13.482C88.6707 13.8936 88.4091 14.2495 88.0524 14.4877C87.6957 14.7258 87.2666 14.831 86.8402 14.7847C86.5436 14.7926 86.2488 14.7358 85.9763 14.6182C85.7038 14.5007 85.4601 14.3253 85.2622 14.1041C85.0643 13.883 84.9169 13.6214 84.8302 13.3376C84.7435 13.0538 84.7196 12.7545 84.7602 12.4605C84.7207 12.1656 84.745 11.8657 84.8315 11.581C84.918 11.2964 85.0646 11.0336 85.2615 10.8105C85.4583 10.5874 85.7008 10.4093 85.9725 10.2881C86.2442 10.1669 86.5388 10.1054 86.8363 10.108C88.0893 10.108 88.8451 10.964 88.8451 12.378V12.6881H85.6655V12.7379C85.6515 12.9031 85.6723 13.0695 85.7264 13.2262C85.7805 13.383 85.8668 13.5267 85.9797 13.6481C86.0927 13.7696 86.2297 13.8661 86.3821 13.9315C86.5345 13.9969 86.6989 14.0297 86.8647 14.0279C87.0772 14.0534 87.2926 14.0151 87.4834 13.9179C87.6741 13.8207 87.8317 13.669 87.936 13.482L88.7914 13.482ZM85.6654 12.0308H87.9399C87.9511 11.8797 87.9306 11.7279 87.8796 11.5852C87.8287 11.4425 87.7484 11.312 87.644 11.2021C87.5396 11.0923 87.4134 11.0055 87.2735 10.9473C87.1336 10.8891 86.983 10.8609 86.8315 10.8643C86.6778 10.8624 86.5253 10.8913 86.3829 10.9492C86.2405 11.0071 86.1112 11.093 86.0025 11.2017C85.8938 11.3104 85.808 11.4398 85.7501 11.5822C85.6922 11.7246 85.6635 11.8771 85.6655 12.0308H85.6654Z" fill="white"/>
<path d="M90.0386 10.195H90.894V10.9103H90.9605C91.0731 10.6534 91.2631 10.438 91.504 10.2942C91.7449 10.1504 92.0246 10.0853 92.3042 10.1081C92.5233 10.0916 92.7433 10.1246 92.9479 10.2047C93.1525 10.2848 93.3365 10.4099 93.4861 10.5708C93.6358 10.7316 93.7474 10.9241 93.8126 11.1339C93.8778 11.3437 93.895 11.5655 93.8628 11.7829V14.6979H92.9741V12.006C92.9741 11.2824 92.6597 10.9225 92.0024 10.9225C91.8537 10.9156 91.7052 10.9409 91.5671 10.9968C91.4291 11.0526 91.3047 11.1376 91.2026 11.246C91.1005 11.3544 91.023 11.4836 90.9755 11.6247C90.9279 11.7658 90.9115 11.9156 90.9272 12.0636V14.6979H90.0386V10.195Z" fill="white"/>
<path d="M101.488 13.482C101.367 13.8936 101.105 14.2495 100.749 14.4877C100.392 14.7258 99.9629 14.831 99.5365 14.7847C99.2399 14.7926 98.9451 14.7358 98.6726 14.6182C98.4001 14.5007 98.1564 14.3253 97.9585 14.1041C97.7606 13.883 97.6132 13.6214 97.5265 13.3376C97.4398 13.0538 97.4159 12.7545 97.4565 12.4605C97.417 12.1656 97.4413 11.8657 97.5278 11.581C97.6142 11.2964 97.7609 11.0336 97.9577 10.8105C98.1546 10.5874 98.3971 10.4093 98.6688 10.2881C98.9405 10.1669 99.2351 10.1054 99.5326 10.108C100.786 10.108 101.541 10.964 101.541 12.378V12.6881H98.3617V12.7379C98.3478 12.9031 98.3686 13.0695 98.4227 13.2262C98.4768 13.383 98.5631 13.5267 98.676 13.6481C98.7889 13.7696 98.926 13.8661 99.0784 13.9315C99.2308 13.9969 99.3951 14.0297 99.561 14.0279C99.7735 14.0534 99.9889 14.0151 100.18 13.9179C100.37 13.8207 100.528 13.669 100.632 13.482L101.488 13.482ZM98.3617 12.0308H100.636C100.647 11.8797 100.627 11.7279 100.576 11.5852C100.525 11.4425 100.445 11.312 100.34 11.2021C100.236 11.0923 100.11 11.0055 99.9697 10.9473C99.8298 10.8891 99.6792 10.8609 99.5277 10.8643C99.374 10.8624 99.2215 10.8913 99.0791 10.9492C98.9368 11.0072 98.8074 11.093 98.6988 11.2017C98.5901 11.3105 98.5043 11.4398 98.4464 11.5822C98.3885 11.7246 98.3597 11.8771 98.3617 12.0308H98.3617Z" fill="white"/>
<path d="M102.776 8.43713H103.665V14.6979H102.776V8.43713Z" fill="white"/>
</svg>
