<svg width="40" height="40" viewBox="0 0 40 40" fill="none" xmlns="http://www.w3.org/2000/svg">
<g clip-path="url(#clip0_606_423)">
<path d="M28.6719 0.992188C28.4688 1.17188 28.3906 1.35156 28.2188 2.0625L28 2.91406L27.6172 3.04688C27.3984 3.125 27.0703 3.25781 26.8828 3.35156C26.6875 3.4375 26.5 3.51562 26.4609 3.51562C26.4219 3.51562 26.0703 3.32031 25.6719 3.08594C24.8984 2.625 24.5625 2.55469 24.2188 2.78125C23.9141 2.98438 23.3672 3.52344 23.1172 3.85938C22.7734 4.32031 22.8125 4.58594 23.3203 5.4375C23.5547 5.83594 23.75 6.1875 23.75 6.22656C23.75 6.26562 23.6719 6.45312 23.5859 6.64844C23.4922 6.83594 23.3594 7.16406 23.2812 7.38281L23.1484 7.76562L22.2969 7.98438C21.5859 8.15625 21.4062 8.23438 21.2344 8.4375C21.0234 8.66406 21.0156 8.71094 21.0156 9.49219V10.3125L11.5 10.3281L1.97656 10.3516L1.59375 10.5859C1.30469 10.7656 1.15625 10.9297 1 11.2422L0.78125 11.6719V22.3047V32.9375L1 33.3672C1.15625 33.6797 1.30469 33.8438 1.59375 34.0234L1.97656 34.2578L6.61719 34.2812L11.25 34.3047V35.0781V35.8594H10.3203C8.70312 35.8594 8.14844 36.0703 7.77344 36.8203C7.60156 37.1719 7.57812 37.3125 7.57812 38.0859C7.57812 38.8359 7.60156 38.9766 7.71875 39.0859C7.85156 39.2109 9.01562 39.2188 22.8984 39.2188C37.3594 39.2188 37.9453 39.2109 38.2422 39.0703C38.625 38.8906 38.9375 38.5703 39.0938 38.1875C39.2031 37.9297 39.2188 36.8047 39.2188 28.3047C39.2188 19.1328 39.2109 18.6953 39.0703 18.3984C38.9922 18.2266 38.8281 17.9922 38.7031 17.875C38.2266 17.4297 38.1719 17.4219 34.7656 17.4219H31.6406V16.9219C31.6406 16.4688 31.6562 16.4141 31.8203 16.3672C31.9141 16.3359 32.2969 16.1875 32.6719 16.0391L33.3516 15.7656L34.0781 16.2031C34.8672 16.6719 35.2031 16.7422 35.5469 16.5156C35.8516 16.3125 36.3984 15.7734 36.6484 15.4375C36.9922 14.9766 36.9531 14.7109 36.4453 13.8594C36.2109 13.4609 36.0156 13.1094 36.0156 13.0703C36.0156 13.0312 36.0938 12.8438 36.1797 12.6484C36.2734 12.4609 36.4062 12.1328 36.4844 11.9141L36.6172 11.5312L37.4688 11.3125C38.1797 11.1406 38.3594 11.0625 38.5391 10.8594C38.7422 10.625 38.75 10.6016 38.75 9.64844C38.75 8.69531 38.7422 8.67188 38.5391 8.4375C38.3594 8.23438 38.1797 8.15625 37.4688 7.98438L36.6172 7.76562L36.4844 7.38281C36.4062 7.16406 36.2734 6.83594 36.1797 6.64844C36.0938 6.45312 36.0156 6.26562 36.0156 6.22656C36.0156 6.1875 36.2109 5.83594 36.4453 5.4375C36.9844 4.53906 37 4.3125 36.5703 3.77344C36.4062 3.57031 36.1484 3.28906 36.0078 3.15625C35.2969 2.50781 35.0781 2.5 34.0859 3.08594L33.3594 3.52344L32.6719 3.25781C32.2969 3.10938 31.9375 2.96875 31.875 2.94531C31.7891 2.92188 31.6875 2.63281 31.5625 2.10156C31.4062 1.42969 31.3281 1.24219 31.125 1.03125L30.875 0.78125H29.8906C28.9297 0.78125 28.9062 0.789062 28.6719 0.992188ZM30.1562 1.71875H30.5312L30.7422 2.59375C30.8594 3.07812 30.9922 3.51562 31.0312 3.57031C31.0703 3.625 31.3438 3.74219 31.625 3.83594C31.9141 3.92969 32.3828 4.125 32.6719 4.26562C32.9609 4.41406 33.2578 4.53125 33.3359 4.53125C33.4062 4.53125 33.8281 4.3125 34.2734 4.05469L35.0859 3.57031L35.2812 3.75781C35.3906 3.85938 35.5859 4.07812 35.7109 4.23438L35.9375 4.51562L35.4688 5.29688C35.2109 5.72656 35 6.13281 35 6.20312C35 6.27344 35.1172 6.57031 35.2656 6.85938C35.4062 7.14844 35.6016 7.61719 35.6953 7.90625C35.7891 8.1875 35.9062 8.46094 35.9609 8.5C36.0156 8.53906 36.4453 8.67188 36.9141 8.78906C37.3906 8.91406 37.7969 9.03125 37.8359 9.0625C37.8672 9.08594 37.8672 9.375 37.8438 9.70312L37.7891 10.2969L37.0781 10.4766C35.9219 10.7578 35.9062 10.7656 35.7109 11.3672C35.6172 11.6641 35.4141 12.1406 35.2656 12.4297C35.1172 12.7266 35 13.0234 35 13.1016C35 13.1719 35.2188 13.5938 35.4766 14.0391L35.9609 14.8516L35.6172 15.2031C35.0781 15.7656 35.1094 15.7656 34.2344 15.2344C33.8047 14.9766 33.3984 14.7656 33.3281 14.7656C33.2578 14.7656 32.9844 14.875 32.7188 15.0078C32.4531 15.1406 32.1016 15.2969 31.9375 15.3594L31.6406 15.4609V14.3438V13.2266L32.0156 12.9844C32.6094 12.6016 33.1797 11.9453 33.5 11.2734C33.7891 10.6641 33.7891 10.6562 33.7891 9.64844C33.7891 8.74219 33.7656 8.58594 33.6016 8.20312C32.8828 6.59375 31.5469 5.67969 29.8828 5.67969C27.6484 5.67969 25.9297 7.39062 25.9219 9.625V10.3125H23.9375C22.6094 10.3125 21.9453 10.2812 21.9062 10.2266C21.8828 10.1797 21.8828 9.88281 21.9141 9.57031L21.9688 9L22.8359 8.78906C23.3203 8.66406 23.75 8.53906 23.8047 8.5C23.8516 8.46094 23.9688 8.19531 24.0625 7.91406C24.1562 7.63281 24.3516 7.15625 24.5 6.86719C24.6484 6.57031 24.7656 6.27344 24.7656 6.20312C24.7656 6.14062 24.5469 5.71094 24.2891 5.26562L23.8047 4.44531L24.0703 4.16406C24.2188 4.01562 24.4297 3.82812 24.5469 3.74219L24.7578 3.59375L25.5156 4.0625C25.9375 4.32031 26.3438 4.53125 26.4219 4.53125C26.5 4.53125 26.8047 4.41406 27.0938 4.26562C27.3828 4.125 27.8516 3.92969 28.1484 3.83594C28.4375 3.73438 28.7031 3.60156 28.7422 3.53125C28.7812 3.45312 28.9062 3.04688 29.0234 2.61719C29.1328 2.1875 29.2422 1.78906 29.2656 1.72656C29.2891 1.65625 29.375 1.63281 29.5391 1.67188C29.6797 1.69531 29.9531 1.71875 30.1562 1.71875ZM30.5312 6.64062C31.3828 6.84375 32.2812 7.54688 32.6406 8.29688C33.1953 9.4375 33 10.7578 32.1328 11.7188C31.9375 11.9375 31.7578 12.1094 31.7266 12.1094C31.6953 12.1094 31.6172 11.9141 31.5703 11.6641C31.4844 11.3125 31.3984 11.1562 31.1016 10.8594C30.6094 10.3672 30.3516 10.3125 28.4453 10.3125H26.8906L26.8359 9.99219C26.75 9.48438 26.8672 8.86719 27.1562 8.28125C27.7891 7.01562 29.1953 6.33594 30.5312 6.64062ZM30.2734 11.3438C30.6875 11.5312 30.7031 11.6328 30.7031 14.6484V17.4219H25.0859C21.0547 17.4219 19.3984 17.4453 19.2109 17.5156C18.7969 17.6562 18.5312 17.8672 18.3047 18.2656L18.0859 18.6328L18.0625 23.375L18.0391 28.125H9.88281H1.71875V19.9141V11.7031L1.94531 11.4766L2.17188 11.25H16.125C26.7734 11.25 30.1172 11.2734 30.2734 11.3438ZM38.0781 18.5625L38.2812 18.7734V20.0859V21.4062H28.6328H18.9844V20.1094V18.8125L19.2109 18.5859L19.4375 18.3594H28.6562H37.8672L38.0781 18.5625ZM38.2812 30.1172V37.8984L38.0938 38.0859C37.9922 38.1875 37.7891 38.2891 37.6484 38.3203C37.5 38.3438 33.3438 38.3516 28.4141 38.3438L19.4375 38.3203L19.2109 38.0625L18.9844 37.8125V30.0781V22.3438H28.6328H38.2812V30.1172ZM18.0469 31.2109V33.3594H10.1094H2.17188L1.94531 33.1328L1.71875 32.9062V30.9844V29.0625H9.88281H18.0469V31.2109ZM18.0469 35.0781V35.8594H15.1172H12.1875V35.0781V34.2969H15.1172H18.0469V35.0781ZM18.0781 37.3594C18.1016 37.6719 18.1484 38.0234 18.1719 38.1406L18.2188 38.3594H13.3672H8.51562V37.8281C8.51562 37.2578 8.63281 37 8.9375 36.875C9.02344 36.8359 11.1094 36.8047 13.5625 36.8047L18.0234 36.7969L18.0781 37.3594Z" fill="white"/>
<path d="M11.0312 14.1172C10.8359 14.2812 7.1875 22.0781 7.1875 22.3281C7.1875 22.6641 7.625 22.8594 7.90625 22.6328C8.07031 22.5 11.7188 14.6484 11.7188 14.4141C11.7188 14.2344 11.4688 13.9844 11.2812 13.9844C11.2266 13.9844 11.1172 14.0469 11.0312 14.1172Z" fill="white"/>
<path d="M4.98438 17.0156C4.11719 17.8828 3.82812 18.2188 3.82812 18.3594C3.82812 18.6484 6.05469 20.8594 6.33594 20.8594C6.57031 20.8594 6.79688 20.6406 6.79688 20.4219C6.79688 20.3359 6.41406 19.8906 5.85938 19.3359L4.92188 18.4063L5.85938 17.4531C6.84375 16.4609 6.92969 16.3047 6.64062 16.0156C6.34375 15.7188 6.19531 15.8047 4.98438 17.0156Z" fill="white"/>
<path d="M12.2657 16.0156C11.9766 16.3047 12.0625 16.4609 13.0469 17.4531L13.9844 18.4063L13.086 19.2969C12.5938 19.7891 12.1641 20.2578 12.1407 20.3359C12.0703 20.5547 12.3125 20.8594 12.5625 20.8594C12.7344 20.8594 13 20.6328 13.9297 19.7031C14.7813 18.8516 15.0782 18.5 15.0782 18.3594C15.0782 18.2188 14.7813 17.875 13.9219 17.0156C12.711 15.8047 12.5625 15.7188 12.2657 16.0156Z" fill="white"/>
<path d="M20.7031 19.4531C20.4843 19.6719 20.5 20.0859 20.7265 20.2969C21.1093 20.6562 21.7187 20.3906 21.7187 19.875C21.7187 19.3828 21.0468 19.1094 20.7031 19.4531Z" fill="white"/>
<path d="M22.8906 19.4531C22.6718 19.6719 22.6875 20.0859 22.914 20.2969C23.2968 20.6562 23.9062 20.3906 23.9062 19.8594C23.9062 19.5234 23.6718 19.2969 23.3203 19.2969C23.1484 19.2969 22.9843 19.3594 22.8906 19.4531Z" fill="white"/>
<path d="M25.0938 19.4766C24.7344 19.8594 25 20.4688 25.5156 20.4688C26.0078 20.4688 26.2813 19.7969 25.9375 19.4531C25.7188 19.2344 25.3047 19.25 25.0938 19.4766Z" fill="white"/>
<path d="M20.6406 24C20.5703 24.0703 20.5469 25.0078 20.5469 27.7422V31.3984L20.7188 31.5156C20.875 31.625 21.7578 31.6406 28.6562 31.6406H36.4141L36.6016 31.4453L36.7969 31.2578V27.7578C36.7969 24.7109 36.7812 24.2344 36.6719 24.0781L36.5547 23.9062H28.6406C22.5938 23.9062 20.7109 23.9297 20.6406 24ZM34.0625 24.8359C33.7578 25.0078 28.7188 27.2109 28.6406 27.2109C28.5547 27.2109 23.7266 25.0781 23.3594 24.875C23.1953 24.7891 23.9844 24.7734 28.6719 24.7734C31.7031 24.7734 34.125 24.7969 34.0625 24.8359ZM24.1953 26.2578C25.6484 26.9062 26.9922 27.5078 27.1875 27.5938L27.5391 27.7422L24.7266 28.9922C23.1797 29.6797 21.7969 30.2969 21.6641 30.3516L21.4062 30.4609V27.7656C21.4062 26.1953 21.4375 25.0781 21.4766 25.0781C21.5156 25.0781 22.7422 25.6094 24.1953 26.2578ZM35.8594 27.7656V30.4453L32.8516 29.1094C31.1953 28.375 29.8438 27.7578 29.8438 27.7344C29.8516 27.6953 35.7031 25.0859 35.8047 25.0781C35.8359 25.0781 35.8594 26.2891 35.8594 27.7656ZM31.4062 29.4688L34.0938 30.6641L31.3359 30.6875C29.8203 30.6953 27.375 30.6953 25.8984 30.6875L23.2109 30.6641L25.8828 29.4766C27.3516 28.8203 28.5938 28.2812 28.6328 28.2812C28.6797 28.2812 29.9219 28.8125 31.4062 29.4688Z" fill="white"/>
<path d="M20.7188 33.4062C20.5078 33.5547 20.4922 33.9062 20.6875 34.0859C20.8203 34.2031 21.1563 34.2188 23.8906 34.2188C26.8516 34.2188 26.961 34.2109 27.1094 34.0625C27.1953 33.9766 27.2656 33.8359 27.2656 33.75C27.2656 33.6641 27.1953 33.5234 27.1094 33.4375C26.961 33.2891 26.8516 33.2812 23.9219 33.2812C21.3047 33.2812 20.8672 33.2969 20.7188 33.4062Z" fill="white"/>
<path d="M30.25 33.4062C30.0391 33.5547 30.0235 33.9062 30.2188 34.0859C30.3516 34.2031 30.6875 34.2188 33.4219 34.2188C36.3828 34.2188 36.4922 34.2109 36.6406 34.0625C36.7266 33.9766 36.7969 33.8359 36.7969 33.75C36.7969 33.6641 36.7266 33.5234 36.6406 33.4375C36.4922 33.2891 36.3828 33.2812 33.4531 33.2812C30.836 33.2812 30.3985 33.2969 30.25 33.4062Z" fill="white"/>
<path d="M20.7813 35.9609C20.5391 36.0781 20.4766 36.4766 20.6641 36.6719C20.7734 36.7812 21.0156 36.7969 22.3828 36.7969C23.9375 36.7969 23.9766 36.7969 24.0938 36.625C24.2656 36.3906 24.25 36.2266 24.0547 36.0469C23.9063 35.9141 23.7422 35.8984 22.4297 35.875C21.3594 35.8594 20.9219 35.8828 20.7813 35.9609Z" fill="white"/>
<path d="M30.3281 35.9375C30.1328 36.0156 30 36.2969 30.0625 36.4844C30.1562 36.7734 30.3125 36.7969 31.9218 36.7969C33.4687 36.7969 33.5078 36.7891 33.625 36.625C33.7968 36.3906 33.7812 36.2266 33.5859 36.0469C33.4375 35.9141 33.2734 35.8984 31.9609 35.8828C31.164 35.875 30.4297 35.8984 30.3281 35.9375Z" fill="white"/>
<path d="M15.8359 30.7188C15.6249 30.8828 15.5546 31.1875 15.664 31.4531C15.7734 31.7188 15.914 31.7969 16.2499 31.7969C16.5078 31.7969 16.7968 31.4844 16.7968 31.2109C16.7968 30.9219 16.5078 30.625 16.2187 30.625C16.0781 30.625 15.9062 30.6719 15.8359 30.7188Z" fill="white"/>
</g>
<defs>
<clipPath id="clip0_606_423">
<rect width="40" height="40" fill="white"/>
</clipPath>
</defs>
</svg>
