<svg width="40" height="40" viewBox="0 0 40 40" fill="none" xmlns="http://www.w3.org/2000/svg">
<path d="M14.5703 1.30469C11.9141 1.64844 9.54688 3.03907 8.04688 5.13282C7.3125 6.17188 6.69531 7.51563 6.52344 8.46094C6.48438 8.67188 6.42188 8.75782 6.29688 8.78125C6.21094 8.79688 5.92188 8.85938 5.66406 8.90625C3.77344 9.28907 2.14844 10.7656 1.50781 12.6953C1.32812 13.25 1.30469 13.4453 1.30469 14.375C1.29688 15.2969 1.32812 15.5078 1.5 16.0313C1.80469 16.9609 2.21875 17.625 2.92188 18.3281C3.625 19.0313 4.29688 19.4453 5.21875 19.75C5.75 19.9219 5.99219 19.9453 7.28906 19.9844L8.75 20.0156V24.0703V28.125H8.09375H7.42969L7.24219 27.7109C7.00781 27.1953 6.60938 26.7891 6.07031 26.5078C5.72656 26.3281 5.5625 26.2969 5 26.2891C4.21094 26.2891 3.75781 26.4688 3.21875 27.0156C2.71094 27.5234 2.53906 27.9531 2.53906 28.75C2.53906 29.5469 2.71094 29.9766 3.21875 30.4844C3.74219 31.0078 4.21094 31.2031 4.96094 31.2109C5.47656 31.2109 5.66406 31.1719 6.02344 31.0078C6.57031 30.75 7 30.3281 7.24219 29.7891L7.42969 29.375H8.09375H8.75V32.3047V35.2422L8.55469 35.4297C8.375 35.6172 8.32812 35.625 7.27344 35.625H6.17969L5.99219 35.2109C5.75781 34.6953 5.35938 34.2891 4.82031 34.0078C4.47656 33.8281 4.3125 33.7969 3.75 33.7891C2.96094 33.7891 2.50781 33.9688 1.96875 34.5156C1.46094 35.0234 1.28906 35.4531 1.28906 36.25C1.28906 37.0469 1.46094 37.4766 1.96875 37.9844C2.49219 38.5078 2.96094 38.7031 3.71094 38.7109C4.22656 38.7109 4.41406 38.6719 4.77344 38.5078C5.32031 38.25 5.75 37.8281 5.99219 37.2891L6.17969 36.875H7.28125C7.91406 36.875 8.51562 36.8359 8.70312 36.7813C9.13281 36.6563 9.78125 36.0078 9.90625 35.5781C9.96875 35.3516 10 34.3984 10 32.3125V29.375H12.625C14.4609 29.375 15.3516 29.3438 15.5781 29.2813C16.0078 29.1563 16.6562 28.5078 16.7812 28.0781C16.8516 27.8438 16.875 26.6953 16.875 23.875V20H18.125H19.375V26.9063V33.8203L18.9609 34.0078C18.4453 34.2422 18.0391 34.6406 17.7578 35.1797C17.5781 35.5234 17.5469 35.6875 17.5469 36.25C17.5391 37.0391 17.7266 37.4922 18.2656 38.0313C18.7734 38.5391 19.2031 38.7109 20 38.7109C20.7969 38.7109 21.2266 38.5391 21.7344 38.0313C22.2734 37.4922 22.4609 37.0391 22.4531 36.25C22.4531 35.6875 22.4219 35.5234 22.2422 35.1797C21.9609 34.6406 21.5547 34.2422 21.0391 34.0078L20.625 33.8203V26.9063V20H21.875H23.125V24.5C23.125 27.8125 23.1484 29.0938 23.2188 29.3281C23.3438 29.7578 23.9922 30.4063 24.4219 30.5313C24.6484 30.5938 25.5391 30.625 27.375 30.625H30V32.9375C30 34.5313 30.0312 35.3594 30.0938 35.5781C30.2188 36.0078 30.8672 36.6563 31.2969 36.7813C31.4844 36.8359 32.0859 36.875 32.7188 36.875H33.8203L34.0078 37.2891C34.4141 38.1875 35.2422 38.7109 36.25 38.7109C37.2422 38.7109 38.0234 38.2266 38.4922 37.3203C38.6719 36.9766 38.7031 36.8125 38.7031 36.25C38.7109 35.4688 38.5234 35.0078 38.0078 34.4922C37.4922 33.9766 37.0312 33.7891 36.25 33.7969C35.6875 33.7969 35.5234 33.8281 35.1797 34.0078C34.6406 34.2891 34.2422 34.6953 34.0078 35.2109L33.8203 35.625H32.7266C31.6719 35.625 31.625 35.6172 31.4453 35.4297L31.25 35.2422V32.9297V30.625H31.9062H32.5703L32.7578 31.0391C32.9922 31.5547 33.3906 31.9609 33.9297 32.2422C34.2734 32.4219 34.4375 32.4531 35 32.4531C35.7891 32.4609 36.2422 32.2734 36.7812 31.7344C37.2891 31.2266 37.4609 30.7969 37.4609 30C37.4609 29.2031 37.2891 28.7734 36.7812 28.2656C36.2422 27.7266 35.7891 27.5391 35 27.5469C34.4375 27.5469 34.2734 27.5781 33.9297 27.7578C33.3906 28.0391 32.9922 28.4453 32.7578 28.9609L32.5703 29.375H31.9062H31.25V24.6953V20.0156L32.7188 19.9844C34.0078 19.9453 34.25 19.9219 34.7812 19.75C35.7031 19.4453 36.375 19.0313 37.0781 18.3281C37.7812 17.625 38.1953 16.9609 38.5 16.0313C38.6719 15.5078 38.7031 15.2969 38.7031 14.375C38.7031 13.4531 38.6719 13.2422 38.5 12.7188C38.1953 11.7891 37.7812 11.125 37.0781 10.4219C36.3672 9.71875 35.7031 9.30469 34.7812 9C34.2812 8.84375 33.9688 8.80469 33 8.76563L31.8125 8.72657L31.7656 8.35938C31.625 7.3125 31.0703 6.28907 30.1641 5.39063C29.4219 4.65625 28.7969 4.28125 27.8125 3.97657C27.0625 3.74219 25.625 3.71875 24.8672 3.92188C24.375 4.0625 23.5625 4.41407 23.1953 4.65625L22.9922 4.78907L22.4141 4.1875C20.6406 2.32032 18.0703 1.22657 15.5469 1.26563C15.1406 1.26563 14.7031 1.28907 14.5703 1.30469ZM16.7734 2.58594C18.6328 2.83594 20.6172 3.92969 21.7969 5.34375C22.7109 6.44532 23.4844 8.09375 23.6328 9.25782C23.7422 10.1094 23.6719 10.0469 24.3594 10L24.9609 9.96094L24.9375 9.72657C24.8359 8.625 24.5 7.42969 24.0234 6.48438C23.8672 6.17188 23.7578 5.875 23.7812 5.82032C23.8438 5.65625 24.7656 5.24219 25.3516 5.11719C26.8438 4.80469 28.2031 5.21875 29.2969 6.32032C29.9766 7.00782 30.25 7.47657 30.4688 8.32813C30.7188 9.28125 30.6562 10.0938 30.2812 11.0234L30.0938 11.4844L30.6172 11.7891C30.8984 11.9609 31.1562 12.0781 31.1875 12.0625C31.2969 11.9922 31.7109 10.7969 31.7656 10.4063L31.8203 10H32.6484C33.7578 10 34.2812 10.1016 35.0547 10.4766C37.7266 11.7578 38.3203 15.3359 36.2031 17.4531C35.5938 18.0547 34.7188 18.5313 33.9531 18.6641C33.3047 18.7813 6.69531 18.7813 6.04688 18.6641C5.79688 18.625 5.28906 18.4375 4.9375 18.2656C2.26562 16.9531 1.6875 13.3984 3.79688 11.2969C5.21875 9.875 7.39062 9.60938 9.17188 10.6563C9.58594 10.8984 10.2344 11.5234 10.5234 11.9609L10.7188 12.2578L11.0859 12.0547C11.2812 11.9453 11.5234 11.8047 11.6172 11.75L11.7891 11.6406L11.6172 11.3516C11.3438 10.8828 10.5078 10.0469 9.97656 9.69532C9.41406 9.32813 8.69531 9.02344 8.125 8.89844C7.90625 8.85157 7.73438 8.77344 7.73438 8.71875C7.73438 8.66407 7.82031 8.35938 7.92969 8.04688C8.78125 5.53907 10.7422 3.63282 13.2812 2.85938C14.4062 2.50782 15.5781 2.42188 16.7734 2.58594ZM15.625 23.8672V27.7422L15.4297 27.9297L15.2422 28.125H12.6172H10V24.0625V20H12.8125H15.625V23.8672ZM30 24.6875V29.375H27.3828H24.7578L24.5703 29.1797L24.375 28.9922V24.4922V20H27.1875H30V24.6875ZM5.49219 27.6094C6.29688 27.9453 6.49219 28.9922 5.86719 29.6172C5.35938 30.125 4.64062 30.125 4.13281 29.6172C3.16406 28.6563 4.23438 27.0781 5.49219 27.6094ZM35.6875 28.9609C36.0781 29.2578 36.2109 29.5078 36.2109 29.9922C36.2109 30.3594 36.1719 30.4922 36 30.7188C35.4531 31.4375 34.5 31.4141 33.9531 30.6719C33.7031 30.3359 33.7266 29.6406 34 29.2813C34.1172 29.1328 34.3281 28.9531 34.4688 28.875C34.7969 28.7109 35.4062 28.75 35.6875 28.9609ZM4.24219 35.1094C5.04688 35.4453 5.24219 36.4922 4.61719 37.1172C4.10938 37.625 3.39062 37.625 2.88281 37.1172C1.91406 36.1563 2.98438 34.5781 4.24219 35.1094ZM20.5156 35.125C21.3203 35.5078 21.4922 36.4922 20.8672 37.1172C20.3594 37.625 19.6406 37.625 19.1328 37.1172C18.1562 36.1406 19.2734 34.5391 20.5156 35.125ZM36.7422 35.1094C37.5469 35.4453 37.7422 36.4922 37.1172 37.1172C36.6094 37.625 35.8906 37.625 35.3828 37.1172C34.4141 36.1563 35.4844 34.5781 36.7422 35.1094Z" fill="white"/>
<path d="M6.14062 11.3359C5.65625 11.4531 4.94531 11.8672 4.60156 12.2422C4.42969 12.4297 4.17188 12.8203 4.03906 13.1094C3.8125 13.5859 3.78906 13.7031 3.78906 14.3828C3.78906 15.0859 3.80469 15.1562 4.07812 15.7188C4.42969 16.4297 4.88281 16.8672 5.60938 17.2109L6.13281 17.4609L8.38281 17.4844L10.625 17.5078V16.8828V16.25H8.625C7.28125 16.25 6.51562 16.2188 6.29688 16.1562C5.625 15.9531 5 15.0938 5 14.375C5 13.4766 5.90625 12.5 6.75 12.5C6.85156 12.5 6.875 12.3984 6.875 11.875V11.25L6.66406 11.2578C6.53906 11.2656 6.3125 11.2969 6.14062 11.3359Z" fill="white"/>
<path d="M12.6954 11.4453C12.586 11.5469 12.5001 11.6953 12.5001 11.7734C12.5001 11.8515 12.3595 13.1406 12.1876 14.6484C12.0235 16.1484 11.8985 17.3906 11.9142 17.4062C11.9454 17.4453 13.0782 17.5781 13.1017 17.5469C13.1095 17.539 13.1563 17.1797 13.2032 16.75C13.3438 15.4922 13.2032 15.625 14.3751 15.625C15.547 15.625 15.4063 15.4922 15.547 16.75C15.5938 17.1797 15.6407 17.539 15.6485 17.5469C15.672 17.5781 16.8048 17.4453 16.836 17.4062C16.8517 17.3906 16.7267 16.1484 16.5626 14.6484C16.3907 13.1406 16.2501 11.8515 16.2501 11.7734C16.2501 11.6953 16.1642 11.5469 16.0548 11.4453C15.8673 11.25 15.8517 11.25 14.3751 11.25C12.8985 11.25 12.8829 11.25 12.6954 11.4453ZM15.1095 12.8672C15.1329 13.0781 15.1798 13.5 15.2032 13.8047L15.2579 14.375H14.3751H13.4923L13.547 13.8047C13.5704 13.5 13.6173 13.0781 13.6407 12.8672L13.6954 12.5H14.3751H15.0548L15.1095 12.8672Z" fill="white"/>
<path d="M18.3203 11.4453L18.125 11.6328V14.5703V17.5H18.75H19.375V16.25V15H21.0547C23.2891 15 23.125 15.1484 23.125 13.125C23.125 11.6484 23.125 11.6328 22.9297 11.4453L22.7422 11.25H20.625H18.5078L18.3203 11.4453ZM21.875 13.125V13.75H20.625H19.375V13.125V12.5H20.625H21.875V13.125Z" fill="white"/>
<path d="M24.375 11.875V12.5H25H25.625V14.375V16.25H25H24.375V16.875V17.5H26.25H28.125V16.875V16.25H27.5H26.875V14.375V12.5H27.5H28.125V11.875V11.25H26.25H24.375V11.875Z" fill="white"/>
</svg>
