<svg width="512" height="512" viewBox="0 0 512 512" fill="none" xmlns="http://www.w3.org/2000/svg">
<path d="M183.88 300.44C183.88 311.32 182.6 321.56 180.04 331.16C177.693 340.76 173.427 349.187 167.24 356.44C161.267 363.48 153.053 369.133 142.6 373.4C132.36 377.453 119.347 379.48 103.56 379.48C89.0533 379.48 76.5733 377.773 66.12 374.36C55.6667 370.733 47.0267 366.573 40.2 361.88L56.84 323.16C63.0267 326.787 69.64 329.987 76.68 332.76C83.72 335.533 91.4 336.92 99.72 336.92C111.88 336.92 120.627 333.933 125.96 327.96C131.293 321.987 133.96 311.96 133.96 297.88V153.24H183.88V300.44ZM292.455 336.92C299.495 336.92 305.255 336.387 309.735 335.32C314.428 334.04 318.162 332.44 320.935 330.52C323.708 328.387 325.628 325.933 326.695 323.16C327.762 320.387 328.295 317.293 328.295 313.88C328.295 306.627 324.882 300.653 318.055 295.96C311.228 291.053 299.495 285.827 282.855 280.28C275.602 277.72 268.348 274.84 261.095 271.64C253.842 268.227 247.335 264.067 241.575 259.16C235.815 254.04 231.122 247.96 227.495 240.92C223.868 233.667 222.055 224.92 222.055 214.68C222.055 204.44 223.975 195.267 227.815 187.16C231.655 178.84 237.095 171.8 244.135 166.04C251.175 160.28 259.708 155.907 269.735 152.92C279.762 149.72 291.068 148.12 303.655 148.12C318.588 148.12 331.495 149.72 342.375 152.92C353.255 156.12 362.215 159.64 369.255 163.48L354.855 202.84C348.668 199.64 341.735 196.867 334.055 194.52C326.588 191.96 317.522 190.68 306.855 190.68C294.908 190.68 286.268 192.387 280.935 195.8C275.815 199 273.255 204.013 273.255 210.84C273.255 214.893 274.215 218.307 276.135 221.08C278.055 223.853 280.722 226.413 284.135 228.76C287.762 230.893 291.815 232.92 296.295 234.84C300.988 236.547 306.108 238.36 311.655 240.28C323.175 244.547 333.202 248.813 341.735 253.08C350.268 257.133 357.308 261.933 362.855 267.48C368.615 273.027 372.882 279.533 375.655 287C378.428 294.467 379.815 303.533 379.815 314.2C379.815 334.893 372.562 351 358.055 362.52C343.548 373.827 321.682 379.48 292.455 379.48C282.642 379.48 273.788 378.84 265.895 377.56C258.002 376.493 250.962 375.107 244.775 373.4C238.802 371.693 233.575 369.88 229.095 367.96C224.828 366.04 221.202 364.227 218.215 362.52L232.295 322.84C238.908 326.467 247.015 329.773 256.615 332.76C266.428 335.533 278.375 336.92 292.455 336.92ZM464.87 349.72C464.87 359.32 461.777 366.68 455.59 371.8C449.617 376.707 442.79 379.16 435.11 379.16C427.43 379.16 420.497 376.707 414.31 371.8C408.337 366.68 405.35 359.32 405.35 349.72C405.35 340.12 408.337 332.867 414.31 327.96C420.497 322.84 427.43 320.28 435.11 320.28C442.79 320.28 449.617 322.84 455.59 327.96C461.777 332.867 464.87 340.12 464.87 349.72Z" fill="#262626"/>
</svg>
